{"glyphs":{"0":{"ha":1008,"x_min":56,"x_max":993,"o":"m 993 665 q 986 556 993 592 l 981 525 l 978 518 l 976 519 q 822 150 968 357 l 646 154 q 746 592 746 271 q 678 882 746 764 q 435 1026 594 1026 q 293 999 368 1026 q 528 1135 358 1135 q 869 1008 746 1135 q 993 665 993 882 m 757 99 q 567 -3 711 -3 q 213 167 369 -3 q 56 536 56 336 q 142 918 56 760 l 396 949 q 308 619 308 843 q 390 264 308 413 q 682 79 492 79 q 757 99 729 79 z "},"1":{"ha":393,"x_min":71,"x_max":349,"o":"m 349 17 l 111 -76 q 71 310 71 64 q 204 1144 71 711 l 297 1114 q 236 671 236 943 q 349 17 236 343 z "},"2":{"ha":932,"x_min":60,"x_max":915,"o":"m 606 1022 q 374 919 482 992 q 200 738 251 839 l 89 972 q 432 1119 246 1121 l 457 1119 l 606 1022 m 892 822 q 697 526 892 661 q 340 307 518 417 q 154 1 149 169 l 72 -43 q 60 97 60 25 q 226 471 60 311 q 538 701 382 586 q 704 954 704 826 q 571 1124 704 1071 q 783 1026 679 1119 q 892 822 892 928 m 915 142 l 767 -60 q 414 29 650 29 q 215 14 303 29 l 263 139 q 568 218 399 218 q 915 142 763 218 z "},"3":{"ha":1053,"x_min":36,"x_max":1004,"o":"m 1004 318 q 857 65 1004 172 q 569 -32 722 -32 q 408 -12 493 -32 q 618 114 531 29 q 718 329 718 213 q 632 526 718 440 q 439 629 553 604 q 688 868 688 676 q 642 976 688 946 q 522 1003 604 1003 q 363 946 439 1003 q 253 817 293 894 l 139 982 q 528 1135 313 1135 q 783 1069 656 1135 q 936 878 936 993 q 890 721 936 796 q 771 608 844 646 q 1004 318 1004 510 m 429 60 l 294 -12 q 153 47 235 -12 q 36 153 89 92 l 181 371 q 265 185 190 274 q 429 60 333 104 z "},"4":{"ha":1097,"x_min":22,"x_max":1100,"o":"m 1100 294 l 944 253 l 944 346 q 1100 388 1017 346 l 1100 294 m 933 -17 l 665 -79 q 660 60 660 -26 q 789 915 660 496 l 903 978 q 882 579 882 811 q 933 -17 882 251 m 924 1185 l 903 1071 q 585 788 736 979 q 364 418 447 615 q 592 336 389 364 l 592 190 q 506 183 561 183 q 22 263 319 183 q 396 800 151 547 q 924 1185 646 1057 z "},"5":{"ha":979,"x_min":46,"x_max":958,"o":"m 906 1063 l 771 865 q 372 969 538 969 q 253 949 293 969 l 181 503 l 78 442 l 150 1042 q 506 1131 293 1131 q 906 1063 718 1131 m 958 399 q 801 106 958 226 q 481 -14 661 -4 q 638 147 576 44 q 699 358 699 249 q 619 533 699 469 q 433 594 546 594 q 274 556 343 594 l 274 649 q 522 721 390 721 q 807 638 675 721 q 958 399 958 542 m 501 79 q 410 -1 456 39 q 306 -49 349 -49 q 46 49 175 -49 l 171 256 q 310 119 214 167 q 501 79 399 76 z "},"6":{"ha":944,"x_min":51,"x_max":925,"o":"m 925 374 q 694 108 925 108 q 579 121 632 108 q 696 425 696 300 q 657 542 696 492 q 553 593 618 593 q 393 556 492 593 l 456 679 q 603 714 529 714 q 833 614 742 714 q 925 374 925 514 m 858 979 l 724 876 q 542 979 658 979 q 354 807 417 979 q 308 528 308 682 q 388 203 308 339 q 658 39 483 39 q 735 58 706 39 q 540 -43 685 -43 q 206 113 360 -43 q 51 451 51 268 q 174 903 51 719 q 569 1114 314 1114 q 858 979 743 1114 z "},"7":{"ha":853,"x_min":43,"x_max":914,"o":"m 914 1072 l 831 969 q 717 982 789 982 q 43 742 415 982 l 138 1032 q 611 1110 344 1110 q 914 1072 771 1110 m 779 918 q 540 442 639 721 q 417 -76 449 182 l 157 -4 q 339 488 194 229 q 654 907 474 725 l 779 918 z "},"8":{"ha":982,"x_min":54,"x_max":944,"o":"m 868 908 q 838 775 868 850 q 754 685 801 685 q 556 789 744 685 q 594 847 579 807 q 608 915 608 883 q 554 982 608 960 q 463 1007 539 989 q 512 1079 475 1051 q 594 1107 549 1107 q 779 1064 707 1107 q 868 908 868 1013 m 944 317 q 802 63 944 188 q 528 -61 660 -61 q 432 -49 481 -61 q 593 74 525 7 q 686 242 686 165 q 542 428 686 339 q 275 574 408 500 q 131 767 131 664 q 226 994 131 897 q 453 1100 321 1090 q 329 881 329 986 q 489 717 329 808 q 785 549 636 633 q 944 317 944 438 m 494 75 q 397 6 446 40 q 290 -33 338 -33 q 128 44 201 -33 q 54 210 54 121 q 256 500 54 376 l 463 396 q 336 203 336 311 q 386 108 336 146 q 494 75 436 69 z "},"9":{"ha":914,"x_min":58,"x_max":881,"o":"m 881 629 q 775 178 881 365 q 403 -51 646 -51 q 199 4 293 -51 q 58 156 106 60 l 193 269 q 274 142 218 193 q 410 83 336 83 q 607 294 546 83 q 649 618 649 436 q 583 883 649 775 q 356 1011 504 1011 q 214 983 289 1011 q 454 1119 285 1119 q 790 985 688 1119 q 881 629 881 867 m 565 560 q 551 410 560 432 q 433 340 528 340 q 199 421 294 340 q 96 642 96 506 q 151 911 96 754 q 350 954 276 956 l 390 953 q 317 724 317 840 q 350 576 317 643 q 463 493 390 493 q 565 560 517 493 z "}," ":{"ha":429,"x_min":0,"x_max":0,"o":""},"!":{"ha":388,"x_min":72,"x_max":342,"o":"m 332 1119 q 342 946 342 1038 q 229 256 342 601 l 139 292 q 154 460 154 363 q 72 1044 154 724 l 332 1119 m 292 56 q 265 -17 292 15 q 200 -49 239 -49 q 135 -18 161 -49 q 110 51 110 13 q 136 123 110 92 q 203 154 163 154 q 266 124 240 154 q 292 56 292 94 z "},"\"":{"ha":618,"x_min":64,"x_max":582,"o":"m 167 699 q 251 883 203 735 q 304 1088 297 1019 l 64 1061 q 131 931 115 1000 q 140 815 135 908 q 167 699 143 746 m 444 699 q 529 883 481 735 q 582 1088 575 1019 l 342 1061 q 408 931 393 1000 q 418 815 413 908 q 444 699 421 746 z "},"$":{"ha":847,"x_min":31,"x_max":826,"o":"m 517 -126 l 382 -171 q 354 -69 354 -126 q 419 64 354 3 q 543 164 482 114 q 610 314 610 229 q 485 478 610 413 q 253 581 369 529 q 129 754 129 649 q 217 926 129 854 q 403 994 299 994 q 454 989 429 994 q 461 1049 461 1014 q 382 1210 461 1153 l 526 1286 q 557 1190 557 1251 q 507 1053 557 1122 q 414 944 460 999 q 363 832 363 882 q 483 721 363 779 q 706 600 664 632 q 826 379 826 508 q 708 188 826 265 q 486 110 614 126 q 461 6 461 64 q 517 -126 461 -72 m 768 978 l 685 782 q 601 864 664 829 q 488 901 549 893 l 561 989 q 663 996 618 996 q 768 978 744 996 m 475 229 q 407 160 442 194 q 331 113 358 113 q 31 250 235 113 l 185 414 q 314 294 238 346 q 475 229 397 239 z "},"&":{"ha":1490,"x_min":57,"x_max":1490,"o":"m 1019 886 q 807 619 1019 719 l 732 713 q 849 869 849 774 q 767 1014 849 953 q 604 1071 690 1071 q 408 992 499 1071 q 693 1185 526 1185 q 917 1096 815 1185 q 1019 886 1019 1007 m 1490 213 q 1400 64 1451 133 q 1268 -53 1325 -36 q 714 324 928 56 q 419 928 533 550 l 504 975 q 878 438 601 651 q 1490 213 1154 224 m 797 124 q 389 -68 582 -68 q 171 3 272 -68 q 57 193 57 81 q 203 451 57 321 q 474 589 342 575 l 525 507 q 368 422 443 493 q 288 265 288 346 q 335 131 288 182 q 465 81 382 81 q 740 213 588 81 l 797 124 z "},"'":{"ha":340,"x_min":64,"x_max":304,"o":"m 167 699 q 251 883 203 735 q 304 1088 297 1019 l 64 1061 q 131 931 115 1000 q 140 815 135 908 q 167 699 143 746 z "},"(":{"ha":607,"x_min":43,"x_max":651,"o":"m 651 -140 l 503 -322 q 165 -4 292 -219 q 43 444 43 206 q 196 985 43 749 q 643 1313 360 1236 q 354 971 465 1213 q 254 528 254 750 q 347 125 254 301 q 651 -140 453 -75 z "},")":{"ha":582,"x_min":-42,"x_max":543,"o":"m 543 514 q 407 17 543 264 q 40 -333 258 -251 q 257 60 182 -165 q 328 504 328 272 q 226 885 328 693 q -42 1163 119 1090 l 128 1313 q 444 976 329 1231 q 543 514 543 758 z "},",":{"ha":354,"x_min":71,"x_max":300,"o":"m 300 49 q 111 -212 300 -114 q 158 -36 158 -125 q 71 121 158 72 l 254 208 q 300 49 300 139 z "},"-":{"ha":456,"x_min":25,"x_max":431,"o":"m 26 472 l 431 486 l 417 369 q 25 313 190 369 l 26 472 z "},".":{"ha":283,"x_min":36,"x_max":247,"o":"m 247 72 q 215 -13 247 26 q 138 -53 182 -53 q 65 -15 96 -53 q 36 61 36 18 q 69 147 36 107 q 146 186 101 186 q 217 151 188 186 q 247 72 247 115 z "},"/":{"ha":428,"x_min":-139,"x_max":651,"o":"m 383 1157 l 651 1178 q 488 689 615 990 q -69 -282 278 199 l -139 -207 q 147 313 6 -22 q 383 1157 318 714 z "},":":{"ha":283,"x_min":33,"x_max":250,"o":"m 247 72 q 215 -13 247 26 q 138 -53 182 -53 q 65 -15 96 -53 q 36 61 36 18 q 69 147 36 107 q 146 186 101 186 q 217 151 188 186 q 247 72 247 115 m 38 478 q 63 563 33 524 q 138 603 93 603 q 211 567 179 603 q 247 489 243 532 q 220 403 250 443 q 146 364 190 364 q 71 401 104 364 q 38 478 40 435 z "},";":{"ha":354,"x_min":71,"x_max":300,"o":"m 300 49 q 111 -212 300 -114 q 158 -36 158 -125 q 71 121 158 72 l 254 208 q 300 49 300 139 m 79 478 q 105 563 75 524 q 179 603 135 603 q 253 567 221 603 q 289 489 285 532 q 262 403 292 443 q 188 364 232 364 q 113 401 146 364 q 79 478 82 435 z "},"<":{"ha":2054,"x_min":7,"x_max":2047,"o":"m 2047 586 q 2043 553 2047 563 q 2046 538 2046 544 q 2036 515 2046 524 l 2046 494 q 1997 472 2046 472 q 1976 479 1985 472 q 1958 472 1963 472 q 1869 528 1936 472 l 1865 528 l 1863 513 q 1865 496 1864 507 q 1846 474 1868 474 q 1818 479 1828 474 q 1799 475 1810 475 q 1776 479 1788 475 q 1749 475 1764 475 q 1729 479 1739 475 l 1721 492 l 1721 497 q 1724 560 1721 507 l 1718 581 q 1725 606 1718 590 q 1722 635 1722 617 q 1726 692 1722 657 l 1721 701 q 1728 758 1726 740 q 1719 783 1719 764 q 1743 826 1719 826 q 1756 821 1750 824 q 1772 828 1764 828 q 1828 822 1818 828 q 1882 828 1839 829 l 1886 824 q 1903 826 1892 824 q 1919 828 1914 828 q 1964 811 1953 828 q 2003 793 1978 814 l 2004 783 q 2038 738 2038 751 l 2036 728 q 2046 697 2046 714 q 2032 653 2046 661 q 2007 608 2036 621 l 2004 603 l 1983 597 q 2006 588 1993 590 q 2024 599 2017 599 q 2043 594 2032 599 l 2047 586 m 1546 918 q 1535 890 1546 904 q 1510 875 1524 875 q 1481 889 1501 875 q 1433 874 1450 874 q 1376 957 1376 874 q 1396 1015 1376 990 q 1447 1039 1415 1039 q 1464 1038 1456 1039 q 1461 1100 1461 1082 q 1492 1183 1461 1183 q 1515 1167 1515 1183 q 1513 1060 1515 1131 q 1511 954 1511 990 q 1524 907 1511 907 q 1539 921 1521 907 l 1543 922 l 1546 918 m 1368 913 q 1355 885 1368 899 q 1328 871 1342 871 q 1288 1006 1288 871 q 1297 1185 1288 1157 q 1326 1200 1303 1200 q 1342 1196 1335 1200 q 1344 1183 1344 1189 q 1340 1065 1344 1143 q 1336 946 1336 986 q 1350 907 1336 907 q 1364 925 1358 907 q 1368 913 1368 919 m 1679 571 q 1674 551 1679 560 q 1678 533 1678 542 q 1672 518 1678 525 q 1675 500 1675 508 q 1642 478 1675 475 l 1638 481 q 1590 476 1611 476 q 1467 474 1504 476 l 1457 479 q 1446 506 1446 511 q 1451 529 1446 519 q 1447 554 1447 542 q 1454 583 1447 569 q 1450 651 1450 592 q 1456 724 1450 714 q 1451 750 1451 739 q 1457 772 1451 764 q 1453 796 1453 779 q 1454 821 1453 807 q 1474 829 1467 829 q 1496 821 1485 829 l 1506 826 q 1621 821 1599 821 q 1636 824 1626 821 q 1651 828 1646 828 q 1674 813 1674 828 q 1668 797 1674 803 q 1672 781 1672 789 q 1668 763 1672 772 q 1672 744 1672 751 q 1628 724 1672 724 q 1603 725 1569 724 q 1583 713 1588 725 l 1586 706 l 1604 701 q 1628 704 1611 701 q 1654 706 1644 707 l 1657 706 l 1667 699 q 1668 681 1668 692 l 1663 672 q 1668 649 1668 658 q 1622 624 1668 624 l 1604 626 q 1588 624 1594 628 l 1588 614 l 1582 607 l 1589 590 l 1647 590 q 1679 571 1679 590 m 1282 972 q 1254 938 1282 957 q 1181 872 1240 872 q 1134 899 1150 872 q 1118 957 1118 925 q 1189 1040 1118 1040 q 1256 968 1249 1040 q 1272 975 1267 975 q 1282 972 1278 975 m 1114 1011 q 1106 982 1114 999 q 1088 965 1099 965 q 1071 989 1081 965 q 1056 918 1060 974 q 1029 876 1053 876 q 1008 910 1010 876 q 1010 957 1010 886 q 1008 981 1010 965 q 1006 1004 1006 996 q 1038 1040 1006 1040 q 1053 997 1057 1040 q 1092 1040 1074 1040 q 1114 1011 1114 1040 m 1408 751 q 1401 699 1408 726 l 1406 690 q 1400 608 1404 625 l 1406 579 l 1400 539 q 1406 493 1406 510 q 1371 478 1396 478 q 1356 482 1364 478 q 1318 476 1331 476 q 1299 493 1311 476 q 1283 519 1286 510 q 1251 556 1260 533 q 1221 585 1239 565 q 1215 535 1215 551 l 1222 518 q 1217 479 1215 492 q 1196 475 1204 475 q 1188 476 1192 475 q 1179 474 1183 474 q 1167 479 1174 474 l 1154 474 l 1106 474 q 1083 507 1083 476 q 1089 535 1083 521 q 1083 563 1083 547 q 1090 603 1083 581 l 1083 617 q 1089 671 1083 661 l 1085 679 q 1089 735 1089 690 q 1086 765 1089 754 l 1088 768 l 1089 782 q 1079 803 1081 788 q 1089 821 1083 811 q 1111 826 1093 826 q 1138 822 1125 826 q 1167 828 1149 828 l 1181 822 l 1194 828 q 1217 814 1207 828 l 1221 814 q 1236 785 1236 794 l 1236 783 l 1246 779 q 1261 750 1258 758 q 1282 736 1272 749 l 1285 739 q 1282 765 1282 754 q 1285 782 1282 775 l 1279 789 q 1283 824 1279 818 q 1314 831 1288 831 q 1347 825 1338 831 q 1360 829 1353 828 l 1365 826 q 1393 832 1374 832 q 1407 822 1399 832 q 1408 794 1408 797 l 1407 765 l 1404 763 q 1408 751 1407 756 m 1004 932 q 990 892 1004 913 q 958 872 976 872 q 933 888 938 872 q 899 871 921 871 q 840 946 840 871 q 860 1008 840 978 q 911 1039 881 1039 q 975 1018 975 1039 l 975 933 q 979 914 975 914 q 996 940 983 914 l 1001 938 q 1004 932 1003 933 m 851 1268 q 810 1151 835 1231 q 800 1068 800 1103 q 803 1028 800 1040 l 822 1031 l 829 1022 l 822 1010 l 807 1003 q 835 908 817 971 q 812 882 829 897 q 783 867 794 867 q 754 1004 754 867 q 725 1011 743 1007 q 654 864 701 864 q 614 883 614 864 l 617 890 q 668 1024 646 964 q 613 1076 613 1058 q 633 1101 613 1096 q 671 1074 642 1099 l 672 1114 q 661 1179 674 1147 q 617 1219 646 1219 q 560 1178 581 1219 q 543 1104 543 1144 q 554 1060 543 1083 q 585 1032 567 1032 q 597 1035 589 1032 q 610 1039 606 1039 q 622 1018 622 1039 q 589 992 622 992 q 517 1094 517 992 q 544 1199 517 1153 q 632 1253 576 1253 q 711 1172 692 1253 l 728 1046 q 761 1035 738 1039 q 842 1275 793 1275 l 851 1268 m 1529 268 q 1507 216 1529 242 q 1458 190 1485 190 q 1428 201 1442 190 q 1415 228 1415 213 q 1440 250 1415 250 q 1438 232 1438 240 q 1456 211 1438 211 q 1472 240 1472 211 q 1450 278 1472 278 q 1435 261 1446 272 q 1425 271 1425 264 q 1457 360 1457 331 q 1465 365 1457 365 l 1471 365 q 1478 336 1472 354 q 1510 253 1515 278 l 1522 274 q 1529 268 1529 274 m 1414 238 q 1363 193 1396 193 q 1340 239 1342 193 q 1342 299 1340 257 q 1332 324 1343 321 q 1313 249 1326 317 q 1279 196 1301 196 q 1268 199 1272 196 q 1260 281 1260 204 l 1260 304 q 1288 361 1260 361 q 1310 346 1310 361 q 1308 337 1310 343 q 1307 328 1307 331 q 1308 319 1307 324 q 1351 365 1329 365 q 1390 313 1390 365 q 1389 283 1390 303 q 1388 253 1388 263 q 1394 239 1388 239 l 1399 242 q 1408 249 1403 244 q 1414 238 1413 243 m 1039 500 q 1007 476 1039 479 q 956 475 1004 475 q 938 481 947 475 l 926 476 q 886 504 893 478 l 886 563 q 888 604 886 586 l 879 611 q 858 607 874 611 q 854 578 854 588 q 856 566 854 574 q 858 554 858 558 q 854 528 858 536 q 860 497 858 503 q 840 474 860 474 q 822 476 832 474 q 801 472 814 472 q 781 479 797 472 q 744 472 765 472 q 722 475 733 472 q 713 500 713 493 q 716 544 713 515 q 719 589 719 574 q 718 652 719 610 q 717 715 717 694 q 713 733 717 721 q 710 751 710 746 q 711 803 710 793 q 746 828 718 828 l 769 822 l 778 828 l 788 828 q 817 822 808 828 q 835 829 828 826 q 860 801 860 829 q 856 782 860 790 q 858 738 858 751 l 874 735 q 892 738 878 735 q 896 779 896 789 q 893 792 896 785 q 900 819 897 815 q 926 831 907 831 l 933 826 q 954 829 943 829 q 979 826 967 829 l 986 829 l 997 826 q 1011 829 1004 829 q 1033 824 1022 829 q 1039 806 1039 815 q 1036 781 1039 797 q 1033 756 1033 764 l 1038 750 q 1032 667 1039 683 q 1039 633 1039 649 q 1031 553 1039 563 q 1039 500 1039 529 m 1042 404 q 1015 369 1042 369 q 997 394 997 369 q 1024 429 997 429 q 1042 404 1042 429 m 1254 267 q 1238 218 1254 257 l 1206 144 q 1144 97 1179 97 q 1112 113 1126 97 q 1097 146 1097 128 q 1114 178 1097 178 q 1121 174 1118 175 l 1126 142 q 1151 118 1131 118 q 1179 186 1179 118 q 1178 200 1179 192 l 1178 214 q 1142 194 1160 194 q 1086 268 1086 194 q 1156 360 1086 360 q 1178 351 1161 360 q 1214 358 1199 358 q 1226 310 1226 358 l 1226 294 q 1225 272 1225 281 l 1225 233 q 1243 279 1243 258 q 1254 267 1254 276 m 1082 260 q 1066 217 1082 238 q 1028 196 1050 196 q 993 265 993 196 q 992 287 993 272 q 990 308 990 301 q 1028 357 990 357 q 1046 318 1046 357 q 1044 288 1046 308 q 1042 258 1042 268 q 1049 232 1042 232 q 1068 249 1060 232 q 1078 267 1074 257 q 1082 260 1082 267 m 988 268 q 965 216 988 242 q 917 190 943 190 q 888 201 901 190 q 874 228 874 213 q 899 250 874 250 q 896 232 896 240 q 914 211 896 211 q 932 240 932 211 q 908 278 932 278 q 893 261 904 272 q 885 271 885 264 q 906 313 893 289 q 913 347 908 319 q 924 365 915 365 l 929 365 q 936 336 931 354 l 961 297 q 968 253 972 274 l 981 274 q 988 268 988 274 m 669 644 q 656 599 669 610 q 646 559 657 579 q 617 535 635 539 q 589 505 613 522 q 553 488 565 488 l 547 489 q 485 472 528 472 q 443 479 454 472 l 442 478 q 379 494 421 478 l 374 504 q 340 524 357 508 q 315 554 338 528 l 317 563 q 296 600 308 575 l 297 607 q 288 649 289 635 q 294 669 294 657 q 311 739 294 711 l 318 740 q 335 767 319 753 q 363 785 350 782 q 410 817 364 801 q 472 831 450 831 q 551 813 533 831 q 611 778 588 806 l 615 776 q 628 765 619 771 l 632 751 l 643 744 q 664 694 663 707 l 661 692 q 665 669 661 685 q 669 644 669 653 m 872 256 q 842 211 872 231 q 786 192 813 192 q 711 274 711 192 q 733 335 711 310 q 790 361 756 361 q 849 294 849 361 q 821 256 849 256 q 767 288 792 256 q 807 218 767 218 q 867 267 833 218 q 872 256 872 267 m 710 238 q 698 209 710 224 q 672 194 686 194 q 643 208 664 194 q 596 193 613 193 q 539 276 539 193 q 558 334 539 310 q 610 358 578 358 q 626 357 618 358 q 624 419 624 401 q 656 503 624 503 q 678 486 678 503 q 676 380 678 450 q 675 274 675 310 q 686 226 675 226 l 701 240 l 706 242 l 710 238 m 249 510 q 247 483 249 503 q 225 476 242 478 l 196 475 l 192 479 q 157 476 168 476 l 151 479 q 126 474 122 474 q 56 479 81 474 q 26 474 49 474 l 18 476 l 10 489 q 7 499 8 492 l 7 561 l 11 569 q 7 590 7 576 q 10 616 7 599 q 13 642 13 633 l 11 647 l 8 650 q 11 719 11 679 q 8 808 11 758 q 49 826 18 826 q 67 821 58 826 q 104 828 100 828 l 115 822 q 136 828 122 828 q 150 821 143 828 q 152 806 150 815 q 154 792 154 796 l 149 772 q 154 732 154 764 q 154 673 154 696 q 154 642 154 650 q 153 639 153 633 l 149 633 l 149 628 l 153 622 l 153 618 q 150 606 154 613 l 154 593 q 181 592 169 593 q 196 594 186 594 l 200 592 q 214 594 208 594 q 219 593 218 594 l 228 597 q 249 560 249 593 q 243 547 249 557 l 246 538 l 244 531 q 249 510 249 524 m 2029 569 l 2029 576 l 2025 578 q 2010 567 2017 571 q 1956 588 1974 579 l 1951 592 l 1951 599 q 1972 614 1965 608 q 2015 643 2006 615 q 2014 653 2014 649 q 2026 674 2014 658 q 2028 707 2028 696 l 2017 718 l 2015 726 q 2019 739 2015 732 q 1993 769 2013 757 q 1978 789 1989 783 q 1953 793 1972 790 q 1876 810 1942 810 q 1856 806 1869 810 q 1835 803 1842 803 q 1810 806 1826 803 q 1786 808 1794 808 q 1769 805 1781 808 q 1753 801 1758 801 l 1746 803 l 1739 796 l 1739 792 q 1750 754 1739 799 q 1740 724 1740 740 q 1749 693 1740 699 q 1744 676 1749 688 q 1739 663 1739 665 l 1746 600 q 1738 582 1738 590 q 1741 565 1738 576 q 1744 549 1744 554 q 1742 525 1744 540 q 1740 501 1740 510 q 1753 492 1740 492 q 1774 501 1761 492 l 1781 501 q 1801 493 1789 493 q 1812 496 1806 493 q 1822 499 1818 499 q 1829 496 1824 499 q 1836 493 1835 493 l 1846 493 l 1849 497 l 1850 503 q 1847 524 1844 514 q 1853 543 1853 538 l 1853 549 l 1858 554 l 1860 560 l 1863 561 l 1865 558 l 1864 547 q 1893 532 1871 549 q 1921 514 1915 515 q 1961 492 1929 496 q 1978 497 1969 497 q 1991 493 1982 497 q 2006 489 2000 489 q 2024 493 2014 489 l 2025 497 l 2017 513 l 2029 569 m 1467 907 l 1465 1011 q 1456 1024 1464 1024 q 1421 965 1421 1024 q 1456 897 1421 897 q 1467 907 1467 897 m 1660 528 l 1660 540 q 1654 551 1654 544 q 1657 561 1654 556 q 1660 569 1660 567 q 1616 572 1651 572 q 1568 582 1581 571 l 1569 589 q 1564 607 1564 599 l 1564 611 q 1572 632 1572 619 l 1569 640 l 1575 644 q 1592 644 1581 643 q 1608 646 1603 646 q 1619 642 1614 644 q 1636 646 1628 646 l 1642 643 l 1649 646 q 1647 660 1649 650 q 1644 674 1644 669 l 1647 682 l 1644 686 q 1635 688 1642 686 l 1624 688 q 1615 685 1621 688 q 1604 683 1608 683 q 1590 686 1601 683 q 1574 688 1578 689 l 1567 688 l 1564 692 l 1568 703 q 1564 715 1564 708 q 1568 724 1564 718 l 1567 735 l 1574 740 q 1575 742 1568 740 l 1653 746 l 1654 753 q 1651 764 1654 758 q 1656 783 1656 772 q 1650 799 1654 788 l 1653 804 l 1650 807 q 1634 804 1644 807 q 1618 801 1624 801 q 1606 804 1614 801 q 1593 807 1597 807 q 1567 805 1585 807 q 1540 803 1549 803 l 1531 807 q 1519 808 1524 808 q 1510 806 1517 808 q 1501 803 1504 803 l 1492 803 l 1482 808 l 1476 808 l 1472 801 q 1475 785 1472 796 q 1478 771 1478 775 q 1474 756 1478 765 q 1471 740 1471 746 q 1474 731 1471 738 q 1476 722 1476 725 q 1473 678 1476 707 q 1469 635 1469 650 q 1472 614 1469 622 l 1469 603 q 1474 582 1469 596 l 1469 558 q 1471 542 1469 553 q 1472 526 1472 532 q 1465 507 1465 513 q 1471 494 1468 500 q 1485 497 1476 494 q 1500 499 1494 499 q 1651 494 1628 499 l 1657 497 q 1654 519 1656 513 l 1660 528 m 1208 940 q 1185 1025 1208 1025 q 1169 958 1169 1025 q 1192 890 1169 890 q 1208 940 1208 890 m 1390 783 l 1389 810 l 1382 811 l 1368 806 q 1307 811 1353 811 q 1301 808 1303 810 l 1301 794 q 1306 768 1306 788 q 1300 721 1306 742 q 1306 704 1306 710 l 1304 701 l 1303 700 l 1293 701 l 1286 707 l 1285 713 q 1246 740 1265 718 q 1217 778 1242 744 q 1196 806 1219 803 q 1179 801 1188 801 q 1163 808 1171 810 l 1156 808 q 1142 801 1151 801 q 1126 804 1136 801 q 1111 807 1115 807 l 1103 803 l 1103 797 q 1110 728 1110 790 q 1107 699 1108 717 q 1110 669 1106 681 l 1106 658 q 1108 629 1106 649 q 1111 600 1111 610 q 1107 560 1111 589 q 1104 517 1103 532 l 1104 503 l 1108 497 q 1128 496 1118 496 q 1129 497 1118 496 q 1161 497 1140 497 l 1196 497 q 1200 519 1199 510 l 1194 531 q 1199 546 1196 538 q 1203 594 1196 561 l 1196 597 q 1204 614 1199 607 l 1208 614 l 1218 606 q 1268 567 1231 606 q 1307 515 1306 529 q 1326 499 1322 501 q 1329 500 1319 499 q 1353 500 1338 500 l 1379 500 l 1383 506 l 1383 511 q 1381 549 1383 515 l 1386 563 q 1381 606 1386 593 q 1389 750 1389 638 q 1385 767 1389 747 l 1390 783 m 931 906 l 931 1006 q 922 1024 931 1024 q 889 947 889 1024 q 913 896 889 896 q 931 906 931 896 m 1022 499 q 1014 557 1014 529 q 1018 575 1014 563 q 1022 593 1022 588 q 1018 631 1022 606 q 1014 669 1014 657 q 1017 678 1014 672 q 1021 686 1021 685 q 1018 706 1021 693 q 1015 724 1015 718 l 1019 731 q 1021 788 1019 768 l 1019 808 l 1006 810 l 1000 807 q 975 807 983 808 l 969 811 q 929 807 954 813 l 922 811 l 915 808 q 910 729 910 764 l 913 719 q 896 717 907 719 q 879 715 885 715 q 856 719 874 715 q 846 713 853 715 l 842 718 q 836 778 844 767 q 842 807 839 797 l 838 810 l 822 801 l 814 803 l 807 810 l 776 810 l 735 808 l 731 806 l 729 799 q 735 774 729 782 l 731 749 l 732 746 q 739 650 733 660 q 736 621 735 635 q 740 590 739 597 q 737 547 740 575 q 733 503 733 518 l 738 493 l 747 492 l 828 492 l 838 494 l 839 504 q 838 519 839 510 q 836 533 836 528 q 842 549 842 543 q 839 567 842 554 q 836 585 836 579 q 843 622 836 581 q 888 631 872 629 l 897 625 l 906 626 l 908 619 q 906 556 911 597 q 907 501 908 519 l 911 496 l 938 500 q 954 496 946 496 q 969 497 960 496 q 985 499 979 499 l 989 496 q 1015 496 1003 499 l 1022 499 m 1175 243 l 1175 308 q 1157 338 1172 338 q 1132 268 1132 338 q 1156 218 1132 218 q 1175 243 1175 218 m 653 654 q 629 732 653 690 l 621 736 q 475 811 579 811 q 388 788 442 811 q 358 763 379 767 q 338 742 350 750 q 322 692 336 726 q 308 639 308 658 q 331 569 308 603 q 388 519 354 535 q 496 493 399 493 q 597 535 521 493 q 618 560 599 540 q 638 601 638 579 l 638 604 q 649 619 643 613 q 651 637 649 625 q 653 654 653 649 m 810 315 q 790 343 810 343 q 767 293 771 343 q 778 300 769 300 q 789 294 782 300 q 800 288 796 288 q 810 315 810 288 m 629 226 l 628 331 q 618 343 628 343 q 585 285 585 343 q 618 217 585 217 q 629 226 629 217 m 231 503 q 228 519 231 508 q 225 536 225 531 q 227 549 225 540 q 229 561 229 557 l 228 569 l 225 572 l 211 572 l 208 569 q 189 575 197 569 q 140 576 158 572 l 139 572 l 132 571 l 129 574 l 132 596 q 132 618 133 608 l 129 622 l 128 631 q 132 660 128 640 q 136 689 136 679 q 131 701 133 696 q 132 715 132 710 l 129 718 q 133 732 129 724 q 136 746 136 740 q 128 765 136 757 q 131 776 128 768 q 133 786 133 783 l 133 803 l 131 807 q 108 808 124 807 q 86 810 93 810 q 78 807 83 810 q 72 804 74 804 q 53 807 69 804 q 33 807 43 808 l 29 800 l 29 768 l 35 761 l 35 754 q 31 708 35 739 q 28 663 28 678 l 32 649 q 28 621 32 639 q 25 593 25 603 q 28 499 25 510 l 33 494 q 57 499 50 497 q 81 494 67 494 q 117 499 110 494 l 128 494 q 156 500 146 499 l 161 496 q 193 499 182 497 l 197 496 q 215 501 213 501 q 226 500 219 501 l 231 503 m 1925 678 q 1917 635 1921 661 q 1878 603 1896 603 q 1871 607 1874 606 q 1854 600 1861 601 l 1849 601 l 1847 607 l 1851 615 q 1850 631 1850 628 q 1851 636 1850 632 l 1851 644 q 1848 659 1851 649 q 1844 675 1844 669 q 1847 689 1844 679 q 1850 703 1850 699 l 1850 704 q 1844 721 1844 711 q 1850 731 1844 725 l 1847 735 l 1850 739 l 1854 739 l 1858 736 q 1882 746 1868 746 q 1908 732 1907 746 q 1919 717 1919 728 q 1918 713 1919 714 l 1921 708 q 1923 692 1921 703 q 1925 678 1925 682 m 540 636 q 518 586 522 592 q 468 565 503 565 q 439 581 449 576 q 422 599 426 596 q 419 626 422 608 q 415 653 415 643 q 418 664 415 657 q 421 675 421 671 q 418 689 421 685 q 434 717 419 703 q 463 732 449 731 l 465 736 q 476 739 471 739 q 497 731 483 739 q 511 715 510 722 l 522 711 q 536 693 531 699 q 540 636 536 650 m 1906 676 q 1901 690 1901 681 q 1882 728 1901 728 l 1865 721 l 1864 715 l 1868 711 l 1868 707 q 1865 687 1868 700 q 1863 668 1863 674 q 1871 628 1863 665 l 1876 624 q 1900 651 1900 628 l 1900 663 q 1903 669 1900 664 q 1906 676 1906 674 m 518 640 q 517 644 518 642 l 517 681 q 498 704 514 692 q 471 717 482 717 l 468 715 q 449 707 454 708 q 438 692 446 694 q 435 660 435 701 q 436 656 435 657 l 433 650 q 436 640 433 647 q 440 608 440 619 q 453 590 446 601 q 462 588 456 590 q 472 585 468 585 q 485 588 463 585 q 508 626 494 596 q 518 640 518 649 z "},"=":{"ha":7058,"x_min":101,"x_max":6947,"o":"m 5881 1256 l 5861 1257 q 5803 1172 5803 1261 l 5803 1031 l 5739 1031 l 5739 1328 l 5800 1328 l 5800 1276 q 5868 1336 5828 1338 l 5881 1335 l 5881 1256 m 5697 1156 l 5531 1156 q 5585 1083 5532 1083 q 5629 1119 5619 1083 l 5694 1119 q 5659 1048 5689 1075 q 5585 1021 5629 1021 q 5467 1179 5467 1021 q 5583 1338 5467 1338 q 5697 1156 5696 1338 m 5632 1207 q 5583 1275 5628 1275 q 5532 1207 5536 1275 l 5632 1207 m 6947 -97 l 6928 -96 q 6869 -181 6869 -92 l 6869 -322 l 6806 -322 l 6806 -25 l 6867 -25 l 6867 -76 q 6935 -17 6896 -14 l 6947 -18 l 6947 -97 m 5425 1031 l 5360 1031 l 5360 1211 q 5318 1271 5360 1271 q 5268 1192 5268 1271 l 5268 1031 l 5204 1031 l 5204 1328 l 5265 1328 l 5265 1285 q 5339 1335 5292 1335 q 5425 1235 5425 1335 l 5425 1031 m 6765 -197 l 6597 -197 q 6653 -269 6599 -269 q 6696 -233 6686 -269 l 6761 -233 q 6726 -305 6756 -278 q 6651 -332 6696 -332 q 6533 -174 6533 -332 q 6650 -15 6533 -15 q 6765 -197 6763 -15 m 6699 -146 q 6650 -78 6694 -78 q 6599 -146 6603 -78 l 6699 -146 m 5144 1031 l 5079 1031 l 5079 1211 q 5039 1271 5079 1271 q 4988 1192 4988 1271 l 4988 1031 l 4924 1031 l 4924 1432 l 4988 1432 l 4988 1289 q 5058 1336 5011 1336 q 5144 1224 5144 1336 l 5144 1031 m 6492 -322 l 6426 -322 l 6426 -140 q 6385 -82 6426 -82 q 6335 -161 6335 -82 l 6335 -322 l 6271 -322 l 6271 -25 l 6333 -25 l 6333 -68 q 6407 -17 6358 -17 q 6492 -118 6492 -17 l 6492 -322 m 6229 -325 q 6199 -326 6207 -326 q 6126 -267 6126 -326 l 6126 -81 l 6093 -81 l 6093 -25 l 6126 -25 l 6126 56 l 6190 56 l 6190 -25 l 6229 -25 l 6229 -81 l 6190 -81 l 6190 -240 q 6193 -262 6190 -251 q 6229 -267 6207 -268 l 6229 -325 m 4878 1179 q 4849 1071 4878 1114 q 4754 1021 4815 1021 q 4658 1071 4692 1021 q 4628 1179 4628 1115 q 4658 1288 4628 1243 q 4754 1338 4692 1338 q 4849 1288 4815 1338 q 4878 1179 4878 1244 m 4813 1179 q 4754 1271 4813 1271 q 4694 1179 4694 1271 q 4754 1088 4694 1088 q 4813 1179 4813 1088 m 5518 354 l 5453 354 l 5453 542 q 5417 593 5453 593 q 5375 532 5375 593 l 5375 354 l 5311 354 l 5311 532 q 5274 592 5311 592 q 5233 532 5233 592 l 5233 354 l 5168 354 l 5168 651 l 5231 651 l 5231 608 q 5301 658 5254 658 q 5368 611 5343 658 q 5439 658 5393 658 q 5518 546 5518 658 l 5518 354 m 6058 -322 l 5993 -322 l 5993 -140 q 5951 -82 5993 -82 q 5901 -161 5901 -82 l 5901 -322 l 5838 -322 l 5838 -25 l 5900 -25 l 5900 -68 q 5972 -17 5925 -17 q 6058 -118 6058 -17 l 6058 -322 m 4600 1031 l 4368 1031 l 4368 1433 l 4438 1433 l 4438 1103 l 4600 1103 l 4600 1031 m 5124 503 q 5094 394 5124 438 q 5000 344 5061 344 q 4904 394 4938 344 q 4874 503 4874 439 q 4904 611 4874 568 q 5000 661 4938 661 q 5094 611 5061 661 q 5124 503 5124 568 m 5058 503 q 5000 594 5058 594 q 4940 503 4940 594 q 5000 411 4940 411 q 5058 503 5058 411 m 5792 -174 q 5763 -282 5792 -239 q 5668 -332 5729 -332 q 5572 -282 5606 -332 q 5543 -174 5543 -237 q 5572 -65 5543 -108 q 5668 -15 5606 -15 q 5763 -65 5729 -15 q 5792 -174 5792 -108 m 5726 -174 q 5668 -82 5726 -82 q 5608 -174 5608 -82 q 5668 -265 5608 -265 q 5726 -174 5726 -265 m 5519 -81 l 5478 -81 l 5478 -322 l 5414 -322 l 5414 -81 l 5379 -81 l 5379 -25 l 5414 -25 q 5424 53 5414 32 q 5490 85 5440 85 q 5518 83 5506 85 l 5518 19 l 5504 21 q 5486 18 5496 21 l 5479 10 q 5478 -25 5478 -1 l 5519 -25 l 5519 -81 m 4178 1031 l 4115 1031 l 4115 1072 q 4043 1021 4090 1021 q 3961 1075 3989 1021 q 3939 1176 3939 1117 q 3961 1281 3939 1236 q 4044 1336 3990 1336 q 4113 1290 4089 1336 l 4113 1432 l 4178 1432 l 4178 1031 m 4114 1178 q 4058 1268 4114 1268 q 4006 1176 4006 1268 q 4060 1086 4006 1086 q 4114 1178 4114 1086 m 4843 463 q 4810 379 4840 414 q 4732 344 4781 344 q 4643 394 4674 344 q 4619 497 4619 435 q 4735 661 4619 661 q 4843 547 4833 661 l 4778 547 q 4736 594 4769 594 q 4686 501 4686 594 q 4733 411 4686 411 q 4778 463 4775 411 l 4843 463 m 5403 93 l 5275 -322 l 5222 -322 l 5350 93 l 5403 93 m 3893 1031 l 3829 1031 l 3829 1433 l 3893 1433 l 3893 1031 m 4444 354 l 4381 354 l 4381 757 l 4444 757 l 4444 354 m 4575 354 l 4506 354 l 4506 438 l 4575 438 l 4575 354 m 5218 -322 l 5153 -322 l 5153 -135 q 5117 -83 5153 -83 q 5075 -144 5075 -83 l 5075 -322 l 5011 -322 l 5011 -144 q 4974 -85 5011 -85 q 4932 -144 4932 -85 l 4932 -322 l 4868 -322 l 4868 -25 l 4929 -25 l 4929 -68 q 5001 -18 4953 -18 q 5068 -65 5043 -18 q 5139 -18 5093 -18 q 5218 -131 5218 -18 l 5218 -322 m 3782 1179 q 3753 1071 3782 1114 q 3658 1021 3719 1021 q 3563 1071 3596 1021 q 3532 1179 3532 1115 q 3563 1288 3532 1243 q 3658 1338 3596 1338 q 3753 1288 3719 1338 q 3782 1179 3782 1244 m 3717 1179 q 3658 1271 3717 1271 q 3599 1179 3599 1271 q 3658 1088 3599 1088 q 3717 1179 3717 1088 m 4333 503 q 4304 394 4333 438 q 4210 344 4271 344 q 4114 394 4147 344 q 4083 503 4083 439 q 4114 611 4083 567 q 4210 661 4147 661 q 4304 611 4271 661 q 4333 503 4333 568 m 4268 503 q 4210 594 4268 594 q 4150 503 4150 594 q 4210 411 4150 411 q 4268 503 4268 411 m 3510 1256 l 3490 1257 q 3432 1172 3432 1261 l 3432 1031 l 3368 1031 l 3368 1328 l 3429 1328 l 3429 1276 q 3497 1336 3457 1338 l 3510 1335 l 3510 1256 m 4824 -174 q 4794 -282 4824 -239 q 4699 -332 4761 -332 q 4603 -282 4638 -332 q 4574 -174 4574 -237 q 4604 -65 4574 -108 q 4699 -15 4638 -15 q 4794 -65 4761 -15 q 4824 -174 4824 -108 m 4757 -174 q 4700 -82 4757 -82 q 4640 -174 4640 -82 q 4700 -265 4640 -265 q 4757 -174 4757 -265 m 4056 354 l 3986 354 q 3979 389 3979 371 q 3904 344 3944 344 q 3826 435 3826 344 q 3851 508 3826 489 q 3908 527 3865 521 q 3972 547 3951 533 q 3978 564 3978 557 q 3940 599 3978 599 q 3896 557 3901 599 l 3833 557 q 3946 661 3839 661 q 4044 547 4044 661 q 4041 482 4044 525 q 4038 422 4038 439 q 4056 367 4038 379 l 4056 354 m 3978 500 q 3921 481 3949 490 q 3889 438 3889 469 q 3922 400 3889 400 q 3978 467 3978 400 l 3978 500 m 3325 1031 l 3256 1031 q 3250 1065 3250 1047 q 3174 1021 3215 1021 q 3096 1110 3096 1021 q 3121 1185 3096 1165 q 3179 1203 3136 1197 q 3243 1224 3222 1210 q 3247 1240 3247 1233 q 3211 1275 3247 1275 q 3167 1233 3172 1275 l 3103 1233 q 3217 1338 3108 1338 q 3315 1224 3315 1338 q 3311 1158 3315 1201 q 3307 1099 3307 1115 q 3325 1043 3307 1056 l 3325 1031 m 3247 1175 q 3192 1157 3219 1167 q 3160 1114 3160 1144 q 3192 1076 3160 1076 q 3247 1143 3247 1076 l 3247 1175 m 4543 -214 q 4510 -297 4540 -262 q 4432 -332 4481 -332 q 4343 -282 4374 -332 q 4319 -179 4319 -242 q 4435 -15 4319 -15 q 4543 -129 4533 -15 l 4476 -129 q 4436 -82 4468 -82 q 4385 -175 4385 -82 q 4433 -265 4385 -265 q 4476 -214 4475 -265 l 4543 -214 m 3051 1031 l 2983 1031 l 2983 1210 l 2853 1210 l 2853 1031 l 2785 1031 l 2785 1432 l 2853 1432 l 2853 1279 l 2983 1279 l 2983 1432 l 3051 1432 l 3051 1031 m 3771 600 q 3747 501 3771 547 q 3668 447 3717 447 q 3636 463 3647 447 q 3628 500 3625 479 q 3563 449 3607 449 q 3500 536 3500 449 q 3524 625 3500 583 q 3594 674 3551 674 q 3644 631 3632 674 l 3653 664 l 3694 664 q 3674 589 3683 626 q 3660 511 3660 540 q 3665 496 3660 504 l 3678 489 q 3724 533 3707 489 q 3738 601 3738 568 q 3702 696 3738 661 q 3607 731 3667 731 q 3490 676 3533 731 q 3446 547 3446 622 q 3489 430 3446 478 q 3601 382 3532 382 q 3726 435 3665 382 l 3743 404 q 3594 343 3676 343 q 3460 404 3510 343 q 3410 551 3410 465 q 3464 705 3410 640 q 3604 769 3518 769 q 3725 722 3679 769 q 3771 600 3771 674 m 3632 603 q 3606 636 3632 636 q 3563 596 3581 636 q 3549 533 3549 563 q 3576 488 3549 488 q 3618 536 3600 488 q 3632 603 3632 574 m 4144 -322 l 4081 -322 l 4081 81 l 4144 81 l 4144 -322 m 4274 -322 l 4206 -322 l 4206 -239 l 4274 -239 l 4274 -322 m 3358 579 l 3339 581 q 3281 496 3281 585 l 3281 354 l 3217 354 l 3217 651 l 3278 651 l 3278 600 q 3346 660 3306 663 l 3358 658 l 3358 579 m 4033 -174 q 4004 -282 4033 -239 q 3908 -332 3971 -332 q 3813 -282 3847 -332 q 3783 -174 3783 -237 q 3813 -65 3783 -108 q 3908 -15 3847 -15 q 4004 -65 3971 -15 q 4033 -174 4033 -108 m 3967 -174 q 3910 -82 3967 -82 q 3850 -174 3850 -82 q 3908 -265 3850 -265 q 3967 -174 3967 -265 m 2543 1031 l 2478 1031 l 2478 1306 l 2401 1306 l 2401 1357 q 2490 1429 2488 1360 l 2543 1429 l 2543 1031 m 3175 479 l 3008 479 q 3063 407 3010 407 q 3107 443 3097 407 l 3172 443 q 3137 372 3167 399 q 3063 344 3107 344 q 2944 503 2944 344 q 3061 661 2944 661 q 3175 479 3172 661 m 3110 531 q 3061 599 3106 599 q 3010 531 3014 599 l 3110 531 m 2354 1240 q 2239 1021 2354 1021 q 2129 1225 2129 1021 q 2243 1431 2129 1431 q 2354 1240 2354 1431 m 2289 1232 q 2243 1367 2289 1367 q 2199 1310 2208 1367 q 2196 1226 2196 1292 q 2199 1142 2196 1158 q 2244 1083 2208 1083 q 2286 1146 2278 1083 q 2289 1232 2289 1164 m 3756 -322 l 3685 -322 q 3679 -287 3679 -306 q 3604 -332 3644 -332 q 3526 -242 3526 -332 q 3550 -168 3526 -187 q 3608 -149 3565 -156 q 3672 -129 3651 -143 q 3678 -112 3678 -119 q 3640 -78 3678 -78 q 3596 -119 3601 -78 l 3533 -119 q 3646 -15 3539 -15 q 3744 -129 3744 -15 q 3740 -194 3744 -151 q 3736 -254 3736 -236 q 3756 -310 3736 -297 l 3756 -322 m 3678 -176 q 3621 -196 3649 -186 q 3589 -239 3589 -207 q 3621 -276 3589 -276 q 3678 -210 3678 -276 l 3678 -176 m 2903 354 l 2838 354 l 2838 536 q 2796 594 2838 594 q 2746 515 2746 594 l 2746 354 l 2682 354 l 2682 651 l 2743 651 l 2743 608 q 2817 658 2769 658 q 2903 558 2903 658 l 2903 354 m 2100 1240 q 1985 1021 2100 1021 q 1875 1225 1875 1021 q 1988 1431 1875 1431 q 2100 1240 2100 1431 m 2033 1232 q 1988 1367 2033 1367 q 1943 1310 1953 1367 q 1940 1226 1940 1292 q 1943 1142 1940 1158 q 1989 1083 1953 1083 q 2031 1146 2022 1083 q 2033 1232 2033 1164 m 3483 -322 l 3415 -322 l 3415 -239 l 3483 -239 l 3483 -322 m 3371 -226 q 3260 -332 3371 -332 q 3146 -228 3157 -332 l 3213 -228 q 3261 -274 3213 -274 q 3304 -243 3304 -274 q 3265 -211 3304 -222 q 3193 -187 3207 -194 q 3154 -115 3154 -164 q 3261 -15 3154 -15 q 3363 -115 3354 -15 l 3299 -115 q 3256 -74 3293 -74 q 3217 -101 3217 -74 q 3221 -115 3217 -101 q 3282 -142 3238 -131 q 3342 -164 3326 -154 q 3371 -226 3371 -183 m 2622 354 l 2557 354 l 2557 536 q 2517 594 2557 594 q 2465 515 2465 594 l 2465 354 l 2401 354 l 2401 756 l 2465 756 l 2465 613 q 2536 660 2489 660 q 2622 547 2622 660 l 2622 354 m 1844 1304 q 1810 1208 1844 1250 q 1744 1147 1793 1186 q 1701 1100 1707 1118 l 1843 1100 l 1843 1031 l 1619 1031 q 1665 1156 1625 1103 q 1740 1229 1703 1192 q 1778 1308 1778 1267 q 1732 1367 1778 1367 q 1686 1289 1688 1367 l 1622 1289 q 1735 1429 1629 1429 q 1815 1393 1785 1429 q 1844 1304 1844 1357 m 3124 -97 l 3104 -96 q 3046 -181 3046 -92 l 3046 -322 l 2981 -322 l 2981 -25 l 3042 -25 l 3042 -76 q 3111 -17 3071 -14 l 3124 -18 l 3124 -97 m 2356 503 q 2326 394 2356 438 q 2232 344 2293 344 q 2136 394 2169 344 q 2106 503 2106 439 q 2136 611 2106 568 q 2232 661 2169 661 q 2326 611 2293 661 q 2356 503 2356 568 m 2290 503 q 2232 594 2290 594 q 2172 503 2172 594 q 2232 411 2172 411 q 2290 503 2290 411 m 2940 -197 l 2772 -197 q 2828 -269 2774 -269 q 2871 -233 2861 -269 l 2936 -233 q 2901 -305 2931 -278 q 2828 -332 2871 -332 q 2708 -174 2708 -332 q 2825 -15 2708 -15 q 2940 -197 2938 -15 m 2874 -146 q 2825 -78 2869 -78 q 2774 -146 2778 -78 l 2874 -146 m 1475 1232 q 1431 1096 1475 1154 q 1310 1031 1383 1031 q 1186 1096 1233 1031 q 1144 1232 1144 1154 q 1188 1368 1144 1308 q 1310 1433 1235 1433 q 1431 1368 1383 1433 q 1475 1232 1475 1308 m 1446 1232 q 1410 1344 1446 1294 q 1310 1399 1369 1399 q 1210 1347 1249 1399 q 1172 1232 1172 1294 q 1208 1118 1172 1168 q 1310 1064 1247 1064 q 1410 1119 1369 1064 q 1446 1232 1446 1168 m 1393 1199 q 1313 1113 1383 1113 q 1243 1151 1269 1113 q 1221 1232 1221 1186 q 1242 1311 1221 1278 q 1310 1351 1267 1351 q 1393 1264 1385 1351 l 1351 1264 q 1313 1306 1344 1306 q 1271 1232 1271 1306 q 1315 1158 1271 1158 q 1351 1199 1346 1158 l 1393 1199 m 2078 354 l 1846 354 l 1846 757 l 1914 757 l 1914 426 l 2078 426 l 2078 354 m 2681 -171 q 2660 -275 2681 -231 q 2578 -331 2632 -331 q 2507 -285 2533 -331 l 2507 -322 l 2444 -322 l 2444 81 l 2507 81 l 2507 -64 q 2578 -18 2535 -18 q 2660 -71 2632 -18 q 2681 -171 2681 -111 m 2614 -174 q 2560 -86 2614 -86 q 2506 -175 2506 -86 q 2561 -267 2506 -267 q 2614 -174 2614 -267 m 1778 354 l 1710 354 l 1710 533 l 1581 533 l 1581 354 l 1511 354 l 1511 756 l 1581 756 l 1581 603 l 1710 603 l 1710 756 l 1778 756 l 1778 354 m 2388 -322 l 2322 -322 l 2322 -135 q 2286 -83 2322 -83 q 2244 -144 2244 -83 l 2244 -322 l 2181 -322 l 2181 -144 q 2143 -85 2181 -85 q 2101 -144 2101 -85 l 2101 -322 l 2038 -322 l 2038 -25 l 2099 -25 l 2099 -68 q 2171 -18 2122 -18 q 2238 -65 2213 -18 q 2308 -18 2263 -18 q 2388 -131 2388 -18 l 2388 -322 m 1996 -197 l 1829 -197 q 1885 -269 1831 -269 q 1928 -233 1918 -269 l 1993 -233 q 1958 -305 1988 -278 q 1883 -332 1928 -332 q 1765 -174 1765 -332 q 1882 -15 1765 -15 q 1996 -197 1994 -15 m 1931 -146 q 1882 -78 1926 -78 q 1831 -146 1835 -78 l 1931 -146 m 1725 -322 l 1658 -322 l 1658 -135 q 1624 -83 1658 -83 q 1582 -144 1582 -83 l 1582 -322 l 1517 -322 l 1517 -144 q 1479 -85 1517 -85 q 1439 -144 1439 -85 l 1439 -322 l 1374 -322 l 1374 -25 l 1436 -25 l 1436 -68 q 1507 -18 1460 -18 q 1575 -65 1550 -18 q 1644 -18 1599 -18 q 1725 -131 1725 -18 l 1725 -322 m 1374 93 l 1246 -322 l 1193 -322 l 1321 93 l 1374 93 m 1247 93 l 1118 -322 l 1065 -322 l 1193 93 l 1247 93 m 1049 -121 l 981 -121 l 981 -36 l 1049 -36 l 1049 -121 m 1049 -322 l 981 -322 l 981 -239 l 1049 -239 l 1049 -322 m 922 -169 q 817 -332 922 -332 q 750 -286 774 -332 l 750 -286 l 750 -437 l 686 -437 l 686 -25 l 747 -25 l 747 -67 l 747 -67 q 818 -15 771 -15 q 901 -68 874 -15 q 922 -169 922 -108 m 857 -174 q 801 -85 857 -85 q 747 -174 747 -85 q 803 -265 747 -265 q 857 -174 857 -265 m 646 -325 q 615 -326 624 -326 q 543 -267 543 -326 l 543 -81 l 510 -81 l 510 -25 l 543 -25 l 543 56 l 607 56 l 607 -25 l 646 -25 l 646 -81 l 607 -81 l 607 -240 q 610 -262 607 -251 q 646 -267 624 -268 l 646 -325 m 493 -325 q 463 -326 471 -326 q 390 -267 390 -326 l 390 -81 l 356 -81 l 356 -25 l 390 -25 l 390 56 l 454 56 l 454 -25 l 493 -25 l 493 -81 l 454 -81 l 454 -240 q 457 -262 454 -251 q 493 -267 471 -268 l 493 -325 m 322 -322 l 257 -322 l 257 -140 q 217 -82 257 -82 q 165 -161 165 -82 l 165 -322 l 101 -322 l 101 79 l 165 79 l 165 -64 q 236 -17 189 -17 q 322 -128 322 -17 l 322 -322 z "},">":{"ha":1075,"x_min":69,"x_max":1004,"o":"m 788 996 l 778 985 q 663 1038 724 1032 q 482 1104 592 1088 l 485 1118 q 668 1050 593 1101 q 788 996 731 1043 m 846 935 l 839 924 q 413 1090 663 1042 l 415 1103 q 846 935 665 1056 m 900 867 l 893 856 q 650 990 786 931 q 383 1063 496 1056 l 385 1076 q 654 1004 503 1069 q 900 867 783 949 m 933 814 l 926 803 q 640 960 801 893 q 326 1039 461 1035 l 326 1053 q 646 975 469 1049 q 933 814 799 911 m 965 728 l 960 715 q 853 796 935 726 l 824 799 q 683 881 785 836 q 526 935 597 917 q 251 976 368 976 l 251 990 q 531 949 388 990 q 831 813 753 883 l 835 811 q 733 885 806 846 q 306 1014 574 972 l 307 1028 q 826 839 668 972 q 858 808 836 829 l 896 804 q 951 772 915 794 l 943 761 q 892 790 928 772 l 878 793 q 965 728 906 768 m 964 668 l 958 656 q 872 707 926 669 q 743 790 836 740 q 351 917 574 881 l 353 931 q 750 801 578 893 q 857 733 785 783 q 964 668 924 688 m 990 675 l 981 664 q 638 867 838 785 q 250 946 424 953 l 250 960 l 264 961 q 761 825 494 967 q 990 675 894 753 m 996 550 l 986 542 q 869 664 935 607 l 867 663 l 865 668 q 440 860 647 856 l 439 857 l 435 860 l 435 860 q 361 874 415 878 l 360 888 q 386 888 374 889 q 354 892 368 894 l 351 906 q 363 906 357 906 q 439 874 394 907 q 872 679 651 874 q 876 681 874 679 q 972 625 917 681 l 963 615 q 886 667 917 661 q 996 550 953 606 m 1004 492 l 993 483 q 721 739 890 636 q 368 844 539 849 l 367 858 l 375 858 q 826 682 607 864 q 1004 492 936 590 m 1004 338 l 990 333 l 979 367 l 993 371 l 1004 338 m 999 464 l 988 456 q 663 751 808 690 q 989 424 836 656 l 978 417 q 807 622 906 528 q 588 769 689 736 l 588 769 q 376 814 486 811 l 378 828 q 597 781 493 825 q 703 747 640 781 q 999 464 839 672 m 979 253 l 965 250 l 956 286 l 968 290 l 979 253 m 331 900 q 306 890 319 892 q 281 897 296 890 l 281 896 l 276 897 l 229 886 l 226 900 l 275 911 q 289 924 281 919 l 226 915 l 224 929 l 290 939 l 293 926 q 319 938 303 932 l 324 924 q 290 908 301 918 q 308 904 301 904 q 321 911 314 904 l 331 900 m 985 389 l 974 382 q 578 742 786 665 q 490 770 549 751 q 388 788 432 789 q 249 756 317 786 q 125 685 207 738 l 117 696 q 299 789 253 785 q 388 801 328 796 q 493 783 435 803 q 597 749 569 758 q 694 700 653 726 q 985 389 840 608 m 340 882 l 338 868 q 292 871 315 871 q 201 850 242 869 l 196 863 q 294 885 238 883 q 340 882 318 885 m 357 856 l 354 843 q 322 846 339 846 q 185 815 265 844 l 181 829 q 321 858 263 858 q 357 856 340 860 m 979 333 l 965 331 q 907 436 940 414 q 965 292 957 346 l 951 290 q 888 442 943 347 l 888 442 q 882 451 885 444 l 882 451 q 743 617 831 543 q 557 725 656 692 q 479 743 536 732 q 453 753 469 747 q 379 761 418 761 q 271 736 338 760 q 181 678 197 708 l 181 679 l 165 665 l 156 675 l 165 683 q 118 640 142 682 l 106 647 q 165 697 135 697 q 178 694 172 697 q 379 775 274 774 q 456 765 419 775 q 483 757 465 763 q 581 732 515 750 q 896 456 782 657 q 979 333 943 453 m 371 822 l 319 811 q 279 789 311 790 q 225 772 253 789 l 218 783 q 286 803 249 803 q 306 815 300 803 q 283 819 296 819 q 176 778 243 818 l 169 790 q 282 832 236 831 q 315 825 303 832 l 368 836 l 371 822 m 218 765 q 167 738 197 765 l 158 749 q 211 779 192 778 l 218 779 l 218 765 m 915 69 q 878 13 896 26 l 869 22 q 794 -42 844 -15 l 788 -29 q 881 79 867 14 l 893 76 q 872 25 888 50 q 901 75 885 35 l 915 69 m 824 75 q 750 22 788 22 q 671 83 708 21 q 619 172 654 113 q 494 386 571 256 l 490 392 l 503 399 l 506 393 q 628 185 579 268 q 682 90 646 153 q 747 36 717 36 q 813 83 779 38 l 824 75 m 882 6 q 825 -47 854 -36 l 819 -33 q 871 13 846 -24 l 882 6 m 967 226 l 953 224 q 921 301 946 269 q 740 594 886 463 q 611 675 693 636 q 467 725 535 710 q 383 735 418 735 q 228 672 306 733 q 188 625 213 646 q 203 631 193 629 q 275 682 235 671 q 379 718 308 717 q 561 682 465 719 q 835 472 742 614 q 913 308 892 386 q 961 158 956 249 l 947 158 q 924 260 944 211 q 935 167 935 207 q 924 94 936 119 l 911 101 q 921 165 922 124 q 904 282 921 213 q 867 393 888 357 q 821 468 836 444 q 767 538 793 510 q 556 669 692 617 q 379 704 463 706 q 285 671 315 703 q 383 696 326 694 q 596 636 486 697 q 601 636 599 636 q 726 567 640 638 q 876 346 811 497 q 910 174 908 271 q 904 97 911 135 l 890 100 q 896 181 896 135 q 817 433 893 304 q 633 614 742 561 q 799 433 731 546 q 885 204 868 321 l 886 201 l 885 200 q 888 161 888 179 q 843 29 889 83 q 804 -15 817 -3 q 756 -47 781 -36 q 675 -89 717 -87 q 554 -7 613 -90 q 467 168 517 47 q 400 315 417 289 q 496 60 408 229 q 678 -97 579 -100 q 800 -39 736 -97 l 810 -50 q 756 -90 781 -75 q 854 -42 801 -71 l 861 -54 q 642 -132 724 -131 q 619 -131 629 -132 q 597 -133 608 -133 q 474 -59 529 -135 q 410 33 419 17 q 357 132 374 88 l 357 138 q 346 175 357 158 q 399 26 358 92 q 483 -96 463 -75 q 618 -149 536 -150 q 651 -149 629 -149 q 715 -128 678 -147 q 843 -78 772 -99 l 850 -75 l 854 -89 l 847 -90 q 722 -140 776 -112 q 651 -162 681 -161 q 635 -162 646 -162 q 618 -162 624 -162 q 428 -46 506 -164 q 329 190 339 92 l 326 193 l 329 196 q 299 353 300 283 q 310 435 297 399 l 322 431 q 313 354 313 397 q 342 199 314 286 q 371 135 372 174 q 496 -64 410 35 q 596 -119 546 -121 q 619 -117 608 -119 q 643 -118 628 -118 q 690 -111 664 -118 q 679 -112 685 -112 q 483 54 563 -114 q 386 315 390 251 q 383 343 385 325 l 385 344 q 381 382 381 363 q 436 479 379 465 q 489 490 454 482 q 457 499 471 499 q 418 483 436 497 l 410 494 q 458 513 432 513 q 501 500 475 513 q 658 344 588 458 q 718 226 672 322 q 776 100 739 185 q 782 78 781 90 q 785 94 785 85 q 782 114 785 104 l 778 121 l 781 122 q 756 182 774 150 q 747 199 753 188 q 722 268 739 222 q 524 508 647 444 q 435 528 483 529 q 338 433 338 526 l 324 433 q 431 542 324 540 q 529 521 486 543 q 733 276 657 456 q 760 204 742 251 q 769 186 764 199 q 794 121 789 150 q 806 111 801 111 q 811 126 811 111 q 625 471 711 401 q 547 528 568 517 q 453 556 514 546 l 456 569 q 553 540 518 558 q 633 482 575 529 q 825 128 724 410 q 808 96 824 96 q 799 100 804 96 l 799 96 q 760 47 800 47 q 682 121 719 46 q 597 285 603 275 q 490 414 525 415 l 488 414 q 483 383 483 397 q 510 318 483 360 q 631 107 538 272 q 742 6 686 4 q 769 14 756 6 q 771 15 769 15 q 836 110 838 64 q 771 299 835 165 q 665 472 708 426 q 472 592 579 560 q 415 579 464 583 q 326 554 361 575 q 249 438 275 519 l 235 442 q 422 594 281 579 q 461 600 438 594 l 460 599 l 461 597 l 465 603 q 450 601 458 601 q 432 603 444 601 q 415 606 419 606 q 344 590 382 606 q 211 322 207 536 q 219 238 213 274 q 283 13 240 122 q 408 -169 343 -140 q 424 -174 414 -175 q 446 -169 433 -174 q 531 -193 461 -196 l 531 -207 l 524 -208 q 450 -194 476 -210 l 451 -200 q 421 -204 436 -204 q 360 -190 390 -204 l 365 -178 q 421 -190 394 -190 q 442 -187 435 -190 l 440 -186 q 424 -187 431 -187 q 400 -181 414 -189 q 361 -153 375 -165 q 258 29 306 -97 q 206 235 218 136 q 197 322 197 289 q 318 594 193 528 q 176 364 174 538 q 181 317 176 344 q 183 265 182 300 q 374 -167 214 -28 l 365 -178 q 192 133 242 -74 q 164 342 174 210 q 163 275 163 310 q 324 -143 168 -7 l 315 -154 q 182 44 219 -69 q 149 281 151 135 q 217 581 146 486 q 142 418 168 532 q 121 235 119 324 q 125 167 121 201 l 111 165 q 107 235 107 201 q 125 404 106 313 q 185 564 147 510 l 169 542 l 169 538 l 165 538 q 99 300 103 436 l 85 301 q 143 526 88 428 q 83 372 104 492 l 69 375 q 110 507 85 458 l 99 511 q 143 578 117 560 l 151 567 q 117 517 131 551 q 157 550 133 543 q 279 668 208 626 q 215 625 244 660 l 217 624 q 210 618 214 621 q 172 574 192 601 l 161 581 q 176 601 169 593 q 156 578 165 593 l 143 585 q 164 611 153 600 l 149 603 l 147 601 q 93 489 97 564 l 79 490 q 136 611 85 569 l 136 613 l 139 613 q 218 682 142 650 l 219 686 l 222 685 q 388 749 296 747 q 722 628 540 751 q 856 487 797 576 q 935 307 914 397 q 967 226 960 272 m 160 661 l 124 613 l 122 613 l 99 572 l 86 579 l 111 622 l 113 621 l 149 669 l 160 661 m 606 -104 l 600 -117 q 517 -60 553 -99 q 454 21 486 -19 l 453 21 l 453 22 q 324 379 328 176 q 325 413 324 394 l 339 411 q 338 381 338 396 q 454 43 342 200 q 388 213 446 88 q 346 385 347 294 q 444 528 344 513 l 447 514 q 361 386 358 500 q 400 218 363 301 q 468 26 471 60 q 526 -49 497 -11 q 606 -104 561 -87 m 635 -182 q 564 -189 596 -189 q 469 -174 499 -190 q 361 -51 419 -144 q 292 97 310 32 q 250 354 253 233 q 283 493 249 422 q 297 521 294 517 q 319 543 307 538 l 326 531 q 293 482 310 522 l 288 483 l 292 481 q 264 356 263 447 q 304 101 267 236 q 372 -43 322 39 q 476 -161 429 -136 q 561 -175 503 -176 q 633 -168 593 -175 l 635 -182 m 542 -154 l 540 -168 l 533 -167 q 468 -135 507 -165 q 285 244 338 -32 q 276 335 278 288 q 428 571 272 568 q 449 571 435 571 l 447 557 q 432 557 440 557 q 292 339 288 554 q 299 247 292 293 q 378 8 317 132 q 542 -154 456 -147 m 817 -172 l 744 -201 l 739 -189 l 811 -158 l 817 -172 m 858 -117 q 540 -219 719 -208 l 540 -206 q 850 -106 710 -199 l 858 -117 m 732 -204 q 663 -235 715 -215 l 657 -222 q 724 -192 681 -214 l 732 -204 m 432 -158 l 424 -169 q 274 69 328 -87 q 225 351 228 204 q 229 435 225 396 l 243 433 q 238 329 238 381 q 393 -118 243 60 q 432 -158 417 -146 m 654 -233 q 538 -254 628 -244 l 536 -240 q 649 -221 575 -237 l 654 -233 m 650 -261 q 518 -285 597 -285 l 506 -285 l 506 -271 l 519 -271 q 644 -249 593 -271 l 650 -261 m 228 -62 l 218 -71 q 125 268 129 35 q 125 314 125 292 l 139 314 q 139 265 139 289 q 228 -62 143 43 m 532 -257 l 446 -264 l 444 -250 l 531 -243 l 532 -257 m 475 -222 q 432 -229 453 -228 q 383 -224 408 -229 l 386 -210 q 432 -215 411 -215 q 472 -208 450 -215 l 475 -222 m 296 -142 l 288 -153 q 228 -92 243 -121 l 240 -85 q 296 -142 254 -111 m 594 621 l 590 622 l 593 621 l 594 621 m 590 622 l 585 625 l 585 625 l 590 622 m 624 550 q 578 581 604 575 q 624 550 590 565 m 849 153 q 834 211 847 182 q 808 268 821 240 q 794 307 804 281 q 701 464 757 400 q 639 532 682 489 l 638 529 q 560 585 575 554 q 486 618 538 600 q 472 606 482 610 q 675 482 593 571 q 846 131 768 381 q 849 153 849 142 m 865 239 q 756 474 838 365 q 558 639 671 588 q 385 682 465 683 q 207 590 288 679 q 390 671 282 668 q 493 656 418 671 q 542 643 510 653 q 694 527 606 618 q 808 372 782 436 q 865 239 842 286 m 874 164 q 872 197 874 181 q 831 281 856 219 q 796 367 797 364 q 746 442 785 388 q 536 631 638 592 q 490 642 524 635 q 390 656 413 657 q 364 654 378 656 q 469 638 406 656 q 565 597 533 619 l 568 599 l 569 596 q 643 546 617 593 q 713 474 657 538 q 801 321 760 418 q 821 274 808 306 q 833 251 825 267 q 863 156 861 199 q 849 100 863 124 q 782 7 842 49 q 725 -31 775 -29 q 564 119 658 -32 q 621 31 574 83 l 611 21 q 549 128 550 89 q 550 142 549 135 q 440 392 442 325 q 463 431 439 429 q 481 426 471 431 q 489 428 485 428 q 607 300 531 428 q 694 126 654 218 q 760 61 724 60 q 742 82 750 68 q 699 161 740 85 q 593 357 664 228 q 475 450 539 451 q 425 399 424 449 q 439 344 425 375 l 439 344 q 533 122 508 171 q 679 -54 615 -40 l 676 -68 q 483 199 583 -47 q 415 365 460 254 l 415 367 q 411 399 411 383 q 475 464 410 463 q 606 364 546 465 q 711 168 621 336 q 754 89 725 142 q 769 71 763 76 q 764 94 769 81 q 736 157 764 96 q 646 340 674 294 q 503 483 582 446 q 472 471 494 475 q 439 467 456 469 q 393 388 392 453 q 401 335 393 364 q 475 185 418 319 q 550 26 521 75 q 675 -75 613 -76 q 726 -54 701 -75 q 718 -54 722 -54 q 621 6 661 -56 l 632 13 q 719 -40 668 -42 q 747 -36 733 -40 l 751 -29 l 756 -32 q 840 47 793 -15 q 874 164 875 93 m 472 622 q 364 640 413 642 q 189 493 235 639 q 278 591 218 556 q 410 626 339 626 l 417 626 l 417 621 q 450 615 435 615 q 472 622 465 615 m 201 658 q 156 621 165 639 q 201 658 183 636 m 761 -4 q 742 -8 751 -7 q 603 128 668 -10 q 499 310 575 188 q 469 383 469 356 q 474 414 469 397 q 464 415 468 415 q 454 397 453 415 q 556 158 454 325 q 726 -17 663 -18 q 761 -4 750 -17 m 565 143 l 565 143 l 565 143 l 565 143 z "},"?":{"ha":913,"x_min":17,"x_max":943,"o":"m 682 999 q 589 1006 643 1006 q 342 957 450 1006 q 157 792 219 901 l 17 972 q 244 1092 93 1050 q 504 1125 376 1129 l 568 1124 l 682 999 m 943 903 q 883 701 943 790 q 735 550 840 639 q 583 419 614 450 q 478 257 506 339 l 269 324 q 436 557 296 438 q 679 747 558 653 q 806 943 806 853 q 647 1119 806 1051 q 943 903 943 1032 m 500 65 q 478 -6 500 28 q 419 -44 456 -39 q 343 -18 376 -53 q 310 60 310 17 q 332 131 310 97 q 390 169 354 164 q 467 144 433 178 q 500 65 500 110 z "},"@":{"ha":1433,"x_min":56,"x_max":1378,"o":"m 629 1029 q 360 768 457 914 q 249 417 249 601 q 425 64 249 193 q 818 -53 585 -53 q 1032 -12 967 -53 l 944 -136 q 678 -185 767 -185 q 614 -181 644 -185 q 221 -15 368 -149 q 56 378 56 133 q 167 708 56 549 q 426 947 265 850 q 629 1029 540 1017 m 1072 154 q 1290 279 1196 154 q 1378 518 1378 394 q 1200 901 1378 754 q 789 1040 1033 1040 q 710 1036 750 1040 l 621 938 q 674 939 649 939 q 1054 838 931 938 q 1183 501 1183 732 q 1161 396 1183 446 q 1083 332 1133 332 q 1004 399 1031 332 q 985 508 985 447 q 1007 626 985 575 l 931 658 q 875 414 875 521 q 926 244 875 325 q 1072 154 986 154 m 850 175 l 821 318 q 740 304 776 304 q 637 351 678 304 q 596 461 596 397 q 678 625 596 568 q 861 672 750 678 q 733 718 803 718 q 535 633 621 718 q 449 435 449 547 q 525 235 449 317 q 719 149 603 149 q 850 175 782 149 z "},"A":{"ha":1415,"x_min":35,"x_max":1386,"o":"m 1386 -7 l 1139 -97 q 1083 518 1140 231 q 807 1007 997 950 l 925 1035 q 1269 571 1142 899 q 1386 -7 1378 293 m 1000 517 l 939 303 q 660 406 871 406 q 393 372 524 406 l 400 442 q 744 561 535 561 q 1000 517 886 561 m 849 1097 q 421 718 564 1047 q 307 107 307 458 q 310 0 307 51 l 49 -83 l 44 26 q 146 543 35 300 q 469 968 257 786 q 576 1049 507 999 q 683 1111 664 1111 q 849 1097 683 1111 z "},"B":{"ha":1194,"x_min":57,"x_max":1175,"o":"m 963 908 q 835 697 963 808 q 560 532 722 601 q 306 469 403 465 l 299 558 q 556 651 450 592 q 707 854 707 738 q 651 947 707 911 q 543 978 603 978 q 319 918 450 978 l 319 1021 q 672 1125 518 1125 q 864 1071 779 1125 q 963 908 963 1010 m 1175 386 q 1003 74 1175 213 q 663 -56 840 -56 q 507 -39 585 -56 q 368 21 410 -18 l 368 96 q 593 68 494 68 q 818 147 722 68 q 919 358 919 232 q 872 488 919 429 q 754 565 824 547 l 872 656 q 1081 581 994 650 q 1175 386 1175 504 m 306 0 l 64 -97 q 57 178 57 14 q 189 1132 57 789 l 278 1083 q 225 576 225 867 q 306 0 225 261 z "},"C":{"ha":1200,"x_min":24,"x_max":1228,"o":"m 1174 979 l 1035 751 q 678 978 932 978 q 538 958 597 978 q 633 1071 586 1015 q 760 1113 679 1113 q 1174 979 947 1113 m 1228 186 q 988 7 1126 71 q 696 -57 849 -57 q 229 88 417 -57 q 24 517 24 246 q 192 889 24 703 q 544 1076 364 1082 l 558 1076 q 276 565 276 833 q 414 217 276 361 q 756 74 551 74 q 1188 289 978 74 l 1228 186 z "},"D":{"ha":1346,"x_min":36,"x_max":1328,"o":"m 1328 593 q 1197 222 1328 382 q 858 14 1065 61 q 1028 245 965 110 q 1092 524 1092 381 q 935 875 1092 740 q 567 1003 788 1003 q 99 779 297 1003 l 36 944 q 644 1111 292 1111 q 1100 985 903 1111 q 1328 593 1328 838 m 879 117 l 740 -42 q 613 -61 679 -61 q 376 -6 499 -61 q 175 131 261 47 q 414 539 414 272 q 347 828 414 697 q 603 925 426 904 q 663 715 663 826 q 588 456 663 592 q 417 242 519 332 q 721 72 556 72 q 879 117 814 72 z "},"E":{"ha":1164,"x_min":29,"x_max":1178,"o":"m 1143 958 l 999 758 q 836 933 963 874 q 592 983 731 983 q 522 979 556 983 q 636 1069 579 1025 q 768 1103 689 1103 q 968 1061 864 1103 q 1143 958 1068 1022 m 799 628 l 674 435 q 476 515 642 515 q 343 503 406 515 l 357 600 q 613 672 485 672 q 799 628 726 672 m 1178 124 q 703 -61 983 -61 q 235 74 418 -61 q 29 499 29 224 q 174 882 29 708 q 536 1069 328 1067 q 346 819 413 968 q 282 513 282 676 q 399 176 282 301 q 725 51 517 51 q 954 97 847 51 q 1136 242 1074 149 l 1178 124 z "},"F":{"ha":950,"x_min":19,"x_max":1018,"o":"m 1018 1056 q 886 814 1017 965 q 713 917 814 878 q 517 957 611 957 q 307 904 406 957 l 321 1014 q 718 1093 471 1093 q 1018 1056 867 1093 m 707 656 l 583 435 q 333 547 532 547 q 279 544 306 547 l 293 649 q 517 696 404 696 q 707 656 633 696 m 314 7 l 58 -104 q 19 271 19 78 q 64 701 19 482 q 196 1111 111 936 l 258 1063 q 215 744 215 942 q 314 7 215 401 z "},"G":{"ha":1289,"x_min":39,"x_max":1281,"o":"m 1185 1018 l 1040 811 q 878 972 986 914 q 653 1025 775 1025 q 564 1018 607 1025 l 667 1142 q 792 1150 732 1150 q 1003 1121 900 1150 q 1185 1018 1125 1085 m 1281 196 l 1213 196 q 957 24 1103 72 q 1029 278 1029 149 q 860 521 1029 454 l 1254 638 l 1281 196 m 922 107 q 832 -39 925 -3 q 647 -61 776 -61 q 229 53 394 -61 q 39 424 39 182 q 185 869 39 678 q 578 1121 332 1061 q 367 846 442 1001 q 286 510 286 683 q 406 200 286 328 q 708 68 528 68 q 922 107 808 68 z "},"H":{"ha":1236,"x_min":68,"x_max":1179,"o":"m 1178 769 q 1179 675 1179 721 q 1086 -39 1179 400 l 989 -25 q 1035 282 1035 107 q 865 1086 1035 671 l 1114 1183 q 1178 769 1172 939 m 918 681 l 849 460 q 640 539 776 510 q 401 565 519 565 q 340 563 368 565 l 333 651 q 674 729 494 729 q 918 681 779 729 m 396 31 l 147 -86 q 68 260 68 7 q 203 1163 68 642 l 285 1121 q 235 724 235 925 q 274 367 235 546 q 396 31 317 168 z "},"I":{"ha":407,"x_min":71,"x_max":351,"o":"m 351 24 l 117 -86 q 71 288 71 68 q 206 1169 71 761 l 317 1121 q 260 710 260 947 q 351 24 260 349 z "},"J":{"ha":936,"x_min":21,"x_max":900,"o":"m 900 778 q 869 396 900 578 l 744 279 q 756 429 756 353 q 712 755 756 585 q 593 1058 668 925 l 835 1169 q 900 778 900 1033 m 821 279 q 694 42 803 136 q 442 -53 585 -53 q 150 66 279 -53 q 26 343 21 185 l 26 363 l 247 479 q 336 233 271 349 q 528 85 422 85 q 821 279 676 85 z "},"K":{"ha":1176,"x_min":47,"x_max":1171,"o":"m 922 1058 q 676 763 842 882 q 315 631 506 640 l 315 742 q 574 896 467 764 q 694 1176 672 1017 l 922 1058 m 1171 51 l 894 -72 l 894 -58 q 801 342 896 153 q 522 638 699 547 l 660 686 q 992 432 849 615 q 1171 51 1126 258 m 336 38 l 88 -79 q 47 285 47 85 q 204 1169 47 738 l 308 1135 q 244 729 244 978 q 336 38 244 386 z "},"L":{"ha":965,"x_min":44,"x_max":982,"o":"m 982 356 l 899 -18 q 672 -50 804 -50 q 408 -4 532 -50 l 360 149 q 529 118 428 118 q 982 356 786 118 m 353 38 l 71 -53 q 44 340 44 144 q 181 1190 44 858 l 271 1135 q 219 739 219 949 q 353 38 219 349 z "},"M":{"ha":1424,"x_min":69,"x_max":1379,"o":"m 1379 485 q 1218 -79 1379 156 l 1129 3 q 1208 374 1208 160 q 1081 818 1208 614 l 929 742 l 853 851 q 1232 1156 1004 1017 q 1379 485 1379 844 m 881 686 l 729 444 q 592 747 681 604 q 369 990 490 913 l 411 1100 q 681 936 553 1050 q 881 686 808 822 m 404 44 l 149 -86 q 69 490 69 182 q 281 1163 69 932 l 356 1121 q 253 581 253 876 q 404 44 253 268 z "},"N":{"ha":1218,"x_min":67,"x_max":1183,"o":"m 1183 729 q 1006 -56 1183 361 l 908 -21 q 982 364 982 150 q 894 856 982 632 q 775 879 842 879 q 322 717 569 879 l 329 828 q 667 1046 476 960 q 1054 1146 871 1139 q 1183 729 1183 1004 m 378 7 l 115 -104 q 67 328 67 71 q 246 1139 67 765 l 315 1083 q 251 600 251 874 q 378 7 251 263 z "},"O":{"ha":1453,"x_min":49,"x_max":1424,"o":"m 1424 618 q 1289 244 1424 424 q 978 -7 1163 74 q 1185 514 1185 236 q 1043 869 1185 708 q 711 1029 901 1029 q 585 1007 647 1029 l 715 1132 q 826 1139 772 1139 q 1238 999 1064 1139 q 1424 618 1424 850 m 957 117 l 867 -28 q 642 -53 749 -53 q 225 82 389 -53 q 49 475 49 226 q 213 874 49 679 q 578 1097 376 1069 q 371 851 444 993 q 294 542 294 706 q 427 206 294 332 q 771 79 560 79 q 957 117 892 79 z "},"P":{"ha":982,"x_min":24,"x_max":1050,"o":"m 1050 904 q 775 561 1050 683 q 311 463 568 469 l 304 565 l 328 565 q 633 638 506 563 q 788 894 788 726 q 699 975 788 940 q 569 1006 625 1006 q 311 925 447 1006 l 304 1007 q 490 1100 367 1064 q 697 1132 600 1132 q 926 1083 831 1132 q 1050 904 1050 1024 m 304 61 l 56 -83 q 24 272 24 86 q 181 1146 24 747 l 263 1076 q 204 719 204 935 q 304 61 204 396 z "},"Q":{"ha":1396,"x_min":35,"x_max":1381,"o":"m 1381 681 q 1283 372 1381 538 q 1061 124 1186 206 l 1000 207 q 1129 542 1129 311 q 1022 890 1129 767 q 715 1013 914 1013 q 586 1000 654 1013 l 717 1125 q 843 1139 779 1139 q 1204 1010 1038 1139 q 1381 681 1381 872 m 1296 35 q 1274 -187 1274 -146 q 1276 -242 1274 -217 q 914 -60 1046 -246 q 800 344 797 107 l 882 351 q 999 113 888 200 q 1251 32 1100 32 q 1296 35 1274 32 m 814 -14 q 599 -40 701 -40 q 208 92 371 -40 q 35 457 35 235 q 201 850 35 665 q 565 1083 357 1024 q 290 494 290 808 q 417 201 290 325 q 711 76 543 76 q 779 82 746 76 l 814 -14 z "},"R":{"ha":1306,"x_min":44,"x_max":1314,"o":"m 983 918 q 731 628 983 728 q 321 551 544 554 l 328 656 q 379 644 346 644 q 599 707 486 644 q 728 876 728 779 q 658 963 728 931 q 542 988 604 988 q 314 944 446 988 l 328 1042 q 494 1103 368 1079 q 679 1122 596 1122 q 983 918 983 1122 m 1314 7 l 1003 -97 q 1013 -22 1013 -60 q 872 292 1013 125 q 603 524 758 426 q 742 558 742 558 q 1094 361 910 558 q 1314 7 1257 186 m 354 21 l 119 -97 q 44 481 44 153 q 168 1139 44 847 l 272 1090 q 224 663 224 910 q 354 21 224 303 z "},"S":{"ha":1083,"x_min":29,"x_max":1079,"o":"m 982 1021 l 844 835 q 550 965 735 965 q 478 958 507 965 q 589 1064 533 1011 q 724 1100 639 1100 q 982 1021 861 1100 m 1079 303 q 921 49 1079 150 q 624 -42 783 -42 q 757 57 700 -1 q 831 200 831 132 q 647 368 831 286 q 307 518 478 443 q 125 758 125 621 q 265 957 125 858 q 499 1069 379 1038 q 346 869 346 967 q 536 688 346 790 q 889 510 713 599 q 1079 303 1079 400 m 686 61 q 568 -15 626 24 q 436 -57 497 -57 q 222 0 344 -57 q 29 117 119 49 l 210 331 q 397 140 282 215 q 650 60 522 60 q 686 61 668 60 z "},"T":{"ha":978,"x_min":7,"x_max":1047,"o":"m 1047 1021 l 903 829 q 454 956 683 956 q 69 856 222 956 l 7 933 q 571 1129 251 1129 q 1047 1021 839 1129 m 607 79 l 369 -65 q 214 299 214 83 q 285 615 214 444 q 453 897 351 772 l 561 882 q 425 540 425 731 q 476 294 425 424 q 607 79 528 171 z "},"U":{"ha":1213,"x_min":60,"x_max":1176,"o":"m 1176 635 q 892 79 1176 300 q 986 538 986 290 q 808 1026 986 836 l 1015 1161 q 1133 909 1090 1051 q 1176 635 1176 767 m 876 199 q 776 11 847 69 q 576 -47 706 -47 q 204 126 354 -47 q 60 517 60 292 q 115 849 60 675 q 260 1156 169 1022 l 358 1104 q 238 697 238 904 q 351 322 238 485 q 683 140 479 140 q 876 199 782 140 z "},"V":{"ha":1175,"x_min":28,"x_max":1167,"o":"m 1167 907 q 867 161 1167 425 l 846 317 q 947 676 947 456 q 856 1047 947 861 l 1140 1171 q 1167 907 1167 1061 m 811 121 q 478 -122 811 -21 q 511 175 511 3 q 394 688 511 464 q 28 1057 271 925 l 100 1140 q 590 717 397 972 q 811 121 811 426 z "},"W":{"ha":1385,"x_min":65,"x_max":1338,"o":"m 1338 558 q 1088 -103 1338 174 l 1010 -50 q 1117 203 1078 60 q 1154 475 1154 342 q 928 1036 1154 797 l 1186 1176 q 1299 876 1258 1044 q 1338 558 1338 714 m 1015 53 l 964 -40 q 733 146 836 39 q 571 389 614 269 q 715 747 611 444 q 822 375 756 553 q 1015 53 913 142 m 596 214 q 440 28 547 114 q 229 -97 344 -50 q 65 414 65 114 q 124 800 65 596 q 275 1161 181 999 l 358 1114 q 249 690 249 907 q 286 435 249 564 q 400 203 328 297 q 544 322 511 260 l 596 214 z "},"X":{"ha":1190,"x_min":32,"x_max":1186,"o":"m 1097 1051 q 761 772 997 1003 l 663 865 q 1046 1135 735 951 l 1097 1051 m 1186 22 l 928 -71 q 649 583 871 274 q 114 1051 424 899 l 192 1119 q 790 665 511 983 q 1186 22 1051 368 m 606 565 q 296 -61 425 338 l 32 28 q 229 381 107 207 q 497 685 356 560 q 606 565 554 643 z "},"Y":{"ha":831,"x_min":36,"x_max":890,"o":"m 518 601 l 465 514 q 196 733 317 574 q 36 1047 86 876 l 300 1161 q 365 861 317 1004 q 518 601 426 681 m 890 1114 q 706 421 863 749 q 249 -118 528 49 l 78 121 q 560 543 363 276 q 792 1135 774 832 l 890 1114 z "},"Z":{"ha":1142,"x_min":4,"x_max":1149,"o":"m 1014 1011 q 808 588 954 786 q 460 275 654 375 l 378 349 q 667 840 640 657 q 326 921 517 921 q 150 901 222 921 l 135 1011 q 544 1096 317 1096 q 1014 1011 804 1096 m 1149 142 q 832 -3 1011 51 q 489 -57 653 -57 q 4 94 217 -57 q 310 301 131 142 q 529 169 404 219 q 778 115 660 115 q 1082 224 947 115 l 1149 142 z "},"\\":{"ha":393,"x_min":-210,"x_max":581,"o":"m 58 1157 l -210 1178 q -44 689 -172 990 q 511 -282 164 199 l 581 -207 q 294 313 436 -22 q 58 1157 125 714 z "},"`":{"ha":911,"x_min":224,"x_max":617,"o":"m 224 976 q 435 904 332 953 q 617 776 551 849 q 517 972 599 882 q 336 1099 440 1058 l 224 976 z "},"a":{"ha":911,"x_min":60,"x_max":917,"o":"m 917 -11 q 829 -28 871 -28 q 646 101 688 -28 q 601 368 624 235 q 443 586 565 532 l 625 663 q 768 449 732 622 q 807 149 788 299 q 917 -11 832 -6 m 514 671 q 157 458 368 636 l 60 569 q 198 666 114 629 q 363 703 282 703 q 514 671 439 703 m 578 58 q 444 -4 540 17 q 293 -21 369 -21 q 144 38 218 -21 q 68 174 65 100 q 193 346 71 271 q 406 414 303 414 q 539 390 472 414 l 536 304 q 497 308 519 308 q 365 281 432 308 q 282 188 283 244 q 314 112 281 143 q 390 81 347 81 q 547 151 458 81 l 578 58 z "},"b":{"ha":801,"x_min":49,"x_max":788,"o":"m 354 1046 q 215 665 263 896 q 172 246 172 463 q 175 135 172 188 l 74 151 q 49 519 49 333 q 124 1149 49 896 q 354 1046 285 1122 m 788 404 q 576 85 788 219 q 193 -33 389 -33 q 107 -28 150 -33 l 107 83 q 167 78 135 78 q 444 171 315 78 q 586 415 586 272 q 532 526 586 483 q 407 569 478 569 q 278 518 338 569 l 294 628 q 506 697 408 697 q 702 606 617 697 q 788 404 788 515 z "},"c":{"ha":821,"x_min":53,"x_max":768,"o":"m 760 594 l 607 458 q 532 546 582 511 q 425 581 482 581 q 393 578 408 581 l 504 688 q 557 693 531 693 q 760 594 681 693 m 768 100 q 601 6 721 42 q 407 -24 501 -24 q 157 56 254 -24 q 53 289 53 140 q 161 558 53 447 q 419 706 257 657 q 303 540 351 638 q 249 347 249 433 q 321 183 249 267 q 474 100 393 100 q 735 228 654 100 l 768 100 z "},"d":{"ha":882,"x_min":40,"x_max":840,"o":"m 840 740 q 782 188 840 453 l 663 169 q 700 456 700 300 q 569 1054 700 778 l 774 1165 q 840 740 840 1003 m 751 108 l 735 7 q 468 -35 604 -35 q 179 53 303 -35 q 40 310 40 150 q 196 578 40 458 q 494 688 340 688 q 603 671 551 688 l 603 578 q 531 583 565 583 q 333 510 418 583 q 246 322 246 432 q 358 144 246 204 q 576 96 447 96 q 751 108 668 96 z "},"e":{"ha":899,"x_min":67,"x_max":825,"o":"m 825 463 q 715 289 825 354 q 506 236 621 233 l 458 236 l 399 356 q 476 332 431 332 q 572 361 528 332 q 622 443 622 393 q 580 532 622 494 q 485 578 538 569 q 560 649 493 614 q 663 679 619 679 q 782 603 732 679 q 825 463 825 535 m 817 83 q 494 -42 701 -42 q 67 313 67 -42 q 214 574 67 460 q 501 679 351 679 q 274 329 274 504 q 344 140 274 224 q 524 53 419 53 q 790 194 660 53 l 817 83 z "},"f":{"ha":561,"x_min":51,"x_max":585,"o":"m 585 679 l 465 483 q 342 556 458 556 q 294 551 318 556 l 319 663 q 476 708 400 708 q 585 679 544 708 m 575 1122 q 507 943 543 968 q 319 986 389 953 q 228 622 228 864 q 329 24 228 333 l 115 -87 q 51 285 51 75 q 101 700 51 481 q 235 1097 151 913 q 447 1150 346 1150 q 575 1122 528 1150 z "},"g":{"ha":835,"x_min":39,"x_max":878,"o":"m 878 858 q 718 675 878 675 q 644 708 704 675 q 714 869 714 729 q 713 904 714 889 l 874 904 q 878 858 878 885 m 763 461 q 678 240 763 339 q 471 144 589 136 l 447 146 l 447 249 q 549 315 514 243 q 575 444 575 371 q 451 604 575 550 q 235 640 353 646 l 457 717 q 660 643 563 717 q 763 461 763 564 m 260 274 l 150 138 q 65 217 94 156 q 39 333 39 269 q 90 496 39 432 q 240 564 146 567 l 251 564 q 208 399 208 482 q 260 274 208 318 m 763 -287 q 721 -410 763 -356 q 611 -467 676 -468 l 593 -467 q 656 -349 656 -411 q 540 -217 656 -290 q 329 -87 435 -153 q 214 76 214 -6 q 274 197 214 106 q 354 317 314 257 l 406 292 q 368 175 368 238 q 468 25 368 99 q 635 -75 551 -25 q 685 -94 653 -79 q 763 -287 763 -144 m 542 -433 q 383 -504 490 -504 q 56 -399 233 -504 l 192 -169 q 299 -353 226 -276 q 485 -440 383 -440 q 542 -433 513 -440 z "},"h":{"ha":858,"x_min":49,"x_max":803,"o":"m 803 411 q 676 -42 803 194 l 574 -7 q 633 110 611 29 q 651 243 651 178 q 628 368 651 311 q 565 483 621 383 q 318 424 381 458 l 310 535 q 510 636 401 597 q 728 679 629 679 q 803 411 803 571 m 353 1081 q 219 408 219 764 q 293 18 219 199 l 106 -67 q 49 324 49 99 q 268 1131 49 754 l 353 1081 z "},"i":{"ha":364,"x_min":65,"x_max":372,"o":"m 372 1054 q 344 978 372 1011 q 272 940 314 940 q 221 965 240 940 q 201 1021 201 989 q 231 1098 201 1063 q 301 1133 260 1133 q 353 1110 333 1133 q 372 1054 372 1086 m 329 67 l 125 -71 q 65 232 65 25 q 125 731 65 469 l 219 714 q 203 551 203 633 q 236 300 203 428 q 329 67 269 165 z "},"j":{"ha":411,"x_min":-278,"x_max":343,"o":"m 343 293 q 60 -361 343 -133 q 158 -114 122 -254 q 193 151 193 22 q 88 568 193 375 l 275 718 q 343 293 343 528 m 60 -239 q -76 -414 13 -340 q -278 -501 -172 -492 l -222 -276 q -156 -278 -160 -278 q 60 -239 11 -278 z "},"k":{"ha":892,"x_min":36,"x_max":896,"o":"m 896 49 l 682 -62 q 537 236 647 96 q 282 450 426 376 l 614 756 l 674 696 l 478 458 q 732 289 621 383 q 896 49 888 158 m 274 40 l 60 -62 q 36 278 36 71 q 179 1149 36 736 l 265 1114 q 207 626 207 932 q 274 40 207 339 z "},"l":{"ha":382,"x_min":74,"x_max":328,"o":"m 328 1100 q 246 547 246 872 q 319 26 246 276 q 82 -50 243 -50 q 74 199 74 51 q 243 1151 74 864 l 328 1100 z "},"m":{"ha":1250,"x_min":71,"x_max":1176,"o":"m 1176 374 q 1076 -28 1176 146 l 975 -10 q 1021 257 1021 122 q 932 493 1021 421 l 796 501 l 761 594 q 1119 722 840 654 q 1176 374 1176 569 m 731 356 q 651 -44 731 136 l 574 -1 q 603 168 603 81 q 497 510 603 363 l 318 501 l 301 586 q 625 739 406 689 q 731 356 731 576 m 310 138 q 301 -53 310 28 l 71 15 q 144 322 144 138 q 89 671 144 507 l 174 706 q 310 138 310 536 z "},"n":{"ha":858,"x_min":74,"x_max":781,"o":"m 781 413 q 696 -47 781 171 l 601 -14 q 638 186 638 65 q 551 492 638 353 q 396 510 463 510 q 321 500 344 510 l 313 586 q 681 715 504 724 l 713 714 q 781 413 781 592 m 304 189 q 286 -47 304 38 l 74 29 q 154 475 154 253 q 125 679 154 607 l 226 714 q 304 189 304 449 z "},"o":{"ha":856,"x_min":64,"x_max":822,"o":"m 822 356 q 701 108 822 217 q 449 -19 594 11 q 568 119 521 36 q 618 296 618 208 q 579 488 618 390 q 449 603 529 611 l 550 679 q 753 575 678 668 q 822 356 822 486 m 449 83 l 346 -11 q 142 79 225 -15 q 64 290 64 168 q 168 569 64 461 q 439 696 268 675 q 313 524 338 569 q 268 313 268 438 q 300 158 268 221 q 419 81 340 81 q 449 83 433 81 z "},"p":{"ha":833,"x_min":43,"x_max":800,"o":"m 800 360 q 646 121 800 236 q 375 11 501 11 q 286 19 336 11 l 278 121 q 361 110 321 110 q 536 211 467 110 q 597 414 597 303 q 544 528 597 479 q 426 578 492 578 q 286 539 363 578 l 296 650 q 482 708 392 708 q 704 598 608 708 q 800 360 800 488 m 278 -372 l 65 -475 q 43 -83 43 -318 q 142 735 43 358 l 236 700 q 197 246 197 510 q 278 -372 197 -93 z "},"q":{"ha":865,"x_min":51,"x_max":814,"o":"m 814 667 q 731 64 731 394 q 789 -372 731 -176 l 575 -526 q 544 -185 544 -393 q 738 710 544 285 l 814 667 m 643 667 l 592 572 q 497 594 543 594 q 324 483 393 594 q 263 275 263 388 q 308 147 263 197 q 431 97 353 97 q 490 113 471 97 l 490 -7 q 376 -28 432 -28 q 147 73 243 -28 q 51 308 51 174 q 169 588 51 464 q 443 711 288 711 q 643 667 553 711 z "},"r":{"ha":635,"x_min":43,"x_max":668,"o":"m 668 674 l 557 469 q 394 528 490 528 q 258 486 324 528 l 250 597 q 564 713 431 713 q 668 674 632 713 m 301 61 l 79 -58 q 43 289 43 92 q 114 717 43 531 l 199 682 q 167 476 167 600 q 301 61 167 251 z "},"s":{"ha":710,"x_min":0,"x_max":656,"o":"m 604 642 l 519 518 q 358 613 486 594 l 418 681 q 483 686 463 686 q 604 642 532 686 m 656 201 q 557 50 656 110 q 375 -10 479 3 q 478 151 478 67 q 375 276 478 225 q 183 360 279 318 q 81 496 81 414 q 153 631 81 572 q 300 686 221 686 q 350 681 325 686 q 274 557 274 610 q 372 469 274 517 q 556 374 521 400 q 656 201 656 303 m 367 83 q 311 29 339 57 q 247 -7 271 -7 q 0 100 168 -7 l 128 228 q 367 83 231 100 z "},"t":{"ha":622,"x_min":0,"x_max":606,"o":"m 606 646 l 554 518 l 411 564 l 418 654 l 606 646 m 536 160 q 221 -18 375 -1 q 175 311 175 115 q 196 564 175 446 l 10 558 l 0 663 l 221 697 q 307 1004 256 836 l 408 969 q 338 531 338 769 q 375 194 338 336 l 503 246 l 536 160 z "},"u":{"ha":815,"x_min":69,"x_max":768,"o":"m 768 646 q 671 238 671 482 q 692 40 671 139 l 599 -3 q 521 413 521 181 q 581 739 521 590 l 768 646 m 504 117 q 121 -19 385 24 q 69 315 69 119 q 156 731 69 538 l 232 671 q 224 521 224 600 q 292 203 224 306 l 471 219 l 504 117 z "},"v":{"ha":717,"x_min":53,"x_max":692,"o":"m 692 671 q 521 263 665 508 l 419 364 q 615 714 489 419 l 692 671 m 488 185 l 343 -62 q 147 281 226 83 q 53 663 68 478 l 129 722 q 264 424 171 567 q 488 185 364 269 z "},"w":{"ha":1099,"x_min":46,"x_max":1076,"o":"m 1076 646 q 907 253 1074 556 l 796 347 q 904 497 847 376 q 975 679 946 583 l 1076 646 m 872 185 l 753 -53 q 525 288 625 94 q 386 671 422 488 l 710 679 q 617 440 708 599 q 872 185 629 396 m 497 194 l 361 -44 q 154 300 240 119 q 46 679 46 525 l 114 696 q 271 418 172 550 q 497 194 379 272 z "},"x":{"ha":958,"x_min":42,"x_max":936,"o":"m 825 638 l 647 492 l 588 560 q 800 696 697 644 l 825 638 m 936 15 l 706 -36 q 506 343 706 136 q 153 619 354 497 l 204 696 q 635 429 425 633 q 936 15 824 244 m 460 288 l 229 -71 l 42 57 q 374 381 261 311 l 460 288 z "},"y":{"ha":875,"x_min":33,"x_max":851,"o":"m 442 232 l 383 172 q 178 358 281 222 q 33 599 93 468 l 229 718 q 442 232 324 419 m 851 650 q 610 69 814 411 q 238 -450 447 -200 l 58 -287 q 494 165 306 -75 q 767 710 747 485 l 851 650 z "},"z":{"ha":851,"x_min":0,"x_max":843,"o":"m 758 568 q 375 185 706 447 l 281 236 q 478 510 417 322 q 136 543 365 543 l 103 638 q 388 671 233 671 q 758 568 626 671 m 843 100 q 640 -6 768 33 q 413 -39 526 -39 q 0 57 213 -39 l 213 194 q 557 101 386 101 q 775 176 693 101 l 843 100 z "},"|":{"ha":411,"x_min":-278,"x_max":343,"o":"m 175 929 q 151 860 175 889 q 88 832 126 832 q 5 872 39 832 q -29 963 -29 913 q -5 1030 -29 1001 q 58 1058 19 1058 q 141 1018 107 1058 q 175 929 175 978 m 343 293 q 60 -361 343 -133 q 158 -114 122 -254 q 193 151 193 22 q 88 568 193 375 l 275 718 q 343 293 343 528 m 60 -239 q -76 -414 13 -340 q -278 -501 -172 -492 l -222 -276 q -156 -278 -160 -278 q 60 -239 11 -278 z "},"":{"ha":860,"x_min":49,"x_max":851,"o":"m 851 857 l 668 692 q 585 797 642 756 q 463 839 529 839 q 428 836 446 839 l 561 971 q 621 978 590 978 q 749 944 686 978 q 851 857 813 910 m 557 -94 l 421 -136 q 401 -51 401 -75 q 479 104 401 53 l 421 101 q 152 192 256 92 q 49 463 49 293 q 158 786 49 647 q 440 983 260 914 q 444 1032 444 1032 q 371 1176 444 1124 l 519 1249 q 546 1165 546 1217 q 460 990 546 1079 l 463 992 q 319 790 383 911 q 249 557 249 654 q 314 354 249 442 q 497 257 386 257 q 804 411 706 257 l 838 257 q 526 111 751 150 q 507 24 507 69 q 557 -94 507 -44 z "},"":{"ha":1004,"x_min":21,"x_max":1004,"o":"m 953 1072 l 849 835 q 711 982 800 924 q 519 1042 618 1042 l 664 1146 q 711 1147 667 1147 q 953 1072 879 1147 m 643 658 l 626 557 l 476 544 q 485 451 485 500 q 464 269 485 328 l 215 156 q 268 417 268 321 q 257 515 268 464 q 29 467 142 496 l 21 626 l 225 636 q 208 751 208 699 q 289 986 208 888 q 497 1125 364 1078 q 367 878 367 981 q 393 760 367 825 q 444 649 419 704 l 643 658 m 1004 149 l 833 -69 q 479 17 719 17 q 125 -22 296 17 l 176 71 q 693 213 438 213 q 1004 149 886 213 z "},"":{"ha":385,"x_min":35,"x_max":350,"o":"m 350 422 q 303 296 350 353 q 186 235 253 235 q 78 290 124 235 q 35 406 35 342 q 83 534 35 475 q 199 593 132 593 q 306 540 263 593 q 350 422 350 486 z "},"":{"ha":819,"x_min":50,"x_max":797,"o":"m 797 174 q 738 29 797 88 q 590 -29 678 -29 q 422 40 519 -29 q 583 178 583 65 q 531 274 583 210 q 432 400 453 367 q 378 569 378 485 q 444 769 378 682 l 517 733 q 496 640 496 686 q 574 479 496 567 q 719 331 647 404 q 797 174 797 244 m 700 928 q 558 794 608 807 q 251 922 411 922 q 207 614 207 793 q 344 -100 207 163 l 143 -211 q 50 264 50 -11 q 169 1007 50 704 q 365 1047 267 1047 q 545 1015 454 1047 q 700 928 636 983 z "},"":{"ha":474,"x_min":54,"x_max":476,"o":"m 476 939 q 256 906 365 936 q 54 811 131 871 q 186 988 90 913 q 386 1079 276 1058 l 476 939 z "},"":{"ha":510,"x_min":47,"x_max":451,"o":"m 451 964 q 426 890 451 924 q 361 857 401 857 q 306 883 328 857 q 283 943 283 910 q 308 1017 283 985 q 374 1050 333 1050 q 429 1024 407 1050 q 451 964 451 999 m 200 926 q 181 873 200 896 q 133 850 163 850 q 72 881 97 850 q 47 949 47 911 q 66 1001 47 979 q 114 1024 85 1024 q 175 993 150 1024 q 200 926 200 963 z "},"":{"ha":1792,"x_min":28,"x_max":1765,"o":"m 1753 918 q 1529 892 1665 892 q 1118 974 1318 892 l 1028 1132 q 1354 1054 1168 1054 q 1697 1160 1543 1054 l 1753 918 m 1579 610 l 1569 403 q 1276 350 1401 350 q 1186 361 1217 350 l 1186 454 q 1396 506 1294 469 q 1579 610 1521 550 m 1765 286 l 1735 3 q 1246 -58 1506 -58 q 904 4 1038 -58 q 949 93 931 46 l 947 99 l 950 97 q 986 307 986 194 q 735 961 986 597 l 940 1143 q 1125 538 1125 864 q 1050 78 1125 304 q 1156 72 1097 72 q 1765 286 1482 72 m 896 382 q 813 392 860 392 q 389 278 633 392 l 403 471 q 656 529 514 529 q 875 496 779 529 l 896 382 m 835 1158 q 419 742 563 1060 q 299 135 299 474 q 304 15 299 74 l 42 -67 l 38 42 q 153 589 28 329 q 511 1022 278 843 q 676 1126 638 1119 l 835 1158 z "},"":{"ha":1464,"x_min":22,"x_max":1507,"o":"m 1507 1176 l 1329 1028 l 1217 1119 l 1371 1283 l 1507 1176 m 1456 619 q 1324 251 1456 428 q 1017 3 1199 83 q 1221 517 1221 243 q 1081 867 1221 708 q 754 1025 940 1025 q 628 1004 690 1025 l 757 1126 q 867 1133 814 1133 q 1272 996 1101 1133 q 1456 619 1456 849 m 1074 782 l 518 261 l 440 343 l 961 875 l 1074 782 m 996 125 l 907 -18 q 685 -42 790 -42 q 274 90 435 -42 q 100 478 100 233 q 261 872 100 679 q 621 1093 422 1065 q 415 849 489 990 q 342 544 342 707 q 472 213 342 338 q 811 88 603 88 q 996 125 932 88 m 261 -1 l 135 -167 l 22 -75 l 175 88 l 261 -1 z "},"":{"ha":1053,"x_min":38,"x_max":1026,"o":"m 1026 353 q 896 396 958 396 q 778 350 821 396 q 992 517 854 517 q 1021 515 1008 517 l 1026 353 m 985 1096 q 819 607 961 946 q 686 219 686 293 q 711 39 686 119 l 431 -60 q 411 81 411 3 q 528 413 411 211 q 751 776 640 594 q 893 1160 878 997 l 985 1096 m 532 557 l 467 492 q 217 717 339 567 q 38 1003 107 851 l 314 1169 q 532 557 403 760 m 443 438 q 239 288 429 288 q 199 289 215 288 l 217 429 q 331 406 275 406 q 443 438 404 406 z "},"":{"ha":1429,"x_min":58,"x_max":1360,"o":"m 1360 457 q 1249 288 1360 351 q 1040 236 1153 233 l 993 236 l 933 356 q 1011 332 965 332 q 1107 361 1064 332 q 1157 443 1157 393 q 1113 535 1157 492 q 1019 578 1068 578 q 911 553 965 578 q 826 488 857 529 q 786 611 813 522 q 1054 700 876 700 q 1267 647 1188 700 q 1360 457 1360 585 m 1351 83 q 1029 -42 1236 -42 q 687 47 779 -42 q 594 381 594 136 q 561 517 594 474 q 443 594 532 556 l 626 671 q 764 465 733 631 q 814 189 814 190 q 1039 51 868 51 q 1325 194 1185 51 l 1351 83 m 515 679 q 156 467 368 644 l 58 578 q 199 674 115 638 q 365 711 282 711 q 515 679 442 711 m 569 67 q 435 4 529 25 q 283 -12 361 -12 q 138 44 210 -12 q 60 175 60 104 q 186 353 60 274 q 403 422 297 422 q 535 399 469 422 l 531 313 q 492 317 514 317 q 357 288 425 317 q 275 190 275 250 q 308 119 275 149 q 382 89 340 89 q 540 160 450 89 l 569 67 z "},"":{"ha":894,"x_min":46,"x_max":889,"o":"m 847 347 q 725 100 847 208 q 472 -28 618 3 q 592 111 546 28 q 642 288 642 200 q 603 479 642 382 q 472 594 553 603 l 574 671 q 667 649 624 667 l 768 785 l 889 696 l 760 586 q 847 347 847 496 m 261 0 l 157 -133 l 46 -42 l 172 63 q 88 282 88 153 q 192 561 88 453 q 464 688 292 667 q 336 515 361 561 q 292 304 292 429 q 324 151 292 214 q 442 72 364 72 q 472 75 456 72 l 369 -19 q 261 0 313 -21 z "},"":{"ha":913,"x_min":17,"x_max":943,"o":"m 279 -60 q 371 -67 317 -67 q 618 -18 510 -67 q 803 147 740 38 l 943 -33 q 715 -153 867 -111 q 456 -186 585 -190 l 393 -185 l 279 -60 m 17 36 q 76 238 17 149 q 225 389 119 300 q 376 519 346 489 q 483 682 456 599 l 690 615 q 524 382 665 501 q 281 192 403 286 q 156 -4 156 85 q 313 -181 156 -114 q 17 36 17 -93 m 460 874 q 483 944 460 911 q 540 983 506 978 q 617 957 583 992 q 650 879 650 922 q 628 808 650 842 q 569 769 606 775 q 494 795 528 761 q 460 874 460 829 z "},"":{"ha":388,"x_min":72,"x_max":342,"o":"m 83 -187 q 72 -14 72 -106 q 185 678 72 332 l 275 640 q 260 472 260 569 q 342 -111 260 208 l 83 -187 m 122 878 q 149 949 122 918 q 215 981 175 981 q 279 950 254 981 q 304 881 304 919 q 278 809 304 840 q 213 778 251 778 q 148 808 174 778 q 122 878 122 838 z "},"":{"ha":599,"x_min":74,"x_max":574,"o":"m 574 158 q 553 160 567 157 q 533 163 539 163 q 308 331 428 163 l 564 536 q 482 350 531 500 q 513 272 497 307 q 574 158 549 189 m 315 165 q 263 161 306 161 q 140 217 196 161 q 74 333 94 265 l 289 543 q 226 356 267 501 q 254 278 240 313 q 315 165 289 194 z "},"":{"ha":599,"x_min":74,"x_max":574,"o":"m 74 158 q 96 160 82 157 q 114 163 110 163 q 340 331 219 163 l 83 536 q 167 350 117 500 q 135 272 150 307 q 74 158 99 189 m 333 165 q 386 161 342 161 q 507 217 453 161 q 574 333 553 265 l 360 543 q 422 356 381 501 q 393 278 407 313 q 333 165 358 194 z "},"":{"ha":978,"x_min":36,"x_max":942,"o":"m 247 72 q 215 -13 247 26 q 138 -53 182 -53 q 65 -15 96 -53 q 36 61 36 18 q 69 147 36 107 q 146 186 101 186 q 217 151 188 186 q 247 72 247 115 m 594 72 q 562 -13 594 26 q 485 -53 529 -53 q 413 -15 443 -53 q 383 61 383 18 q 416 147 383 107 q 493 186 449 186 q 565 151 535 186 q 594 72 594 115 m 942 72 q 909 -13 942 26 q 832 -53 876 -53 q 760 -15 790 -53 q 731 61 731 18 q 763 147 731 107 q 840 186 796 186 q 912 151 882 186 q 942 72 942 115 z "},"":{"ha":1717,"x_min":39,"x_max":1692,"o":"m 1689 921 q 1468 894 1603 894 q 1063 976 1260 894 l 974 1132 q 1294 1056 1113 1056 q 1635 1158 1481 1056 l 1689 921 m 1510 617 l 1499 411 q 1210 361 1333 361 q 1121 371 1150 361 l 1121 514 l 1165 513 q 1349 536 1256 511 q 1510 617 1457 564 m 1692 281 l 1663 1 q 1179 -58 1436 -58 q 843 3 975 -58 q 888 90 869 44 l 885 96 l 889 94 q 924 301 924 190 q 683 964 924 615 l 886 1143 q 1060 546 1060 879 q 986 75 1060 306 q 1090 69 1035 69 q 1692 281 1413 69 m 819 90 l 747 -33 l 690 -35 q 244 97 431 -42 q 39 504 39 249 q 140 813 39 660 q 389 1047 238 958 q 697 1128 546 1139 l 736 1125 q 422 894 547 1051 q 289 535 289 726 q 413 218 289 358 q 711 74 540 74 q 819 90 765 74 z "},"":{"ha":1454,"x_min":63,"x_max":1381,"o":"m 1061 244 q 1006 247 1042 244 l 950 369 q 1026 343 982 343 q 1124 368 1079 343 q 1176 449 1176 399 q 1130 547 1176 506 q 1025 589 1083 589 q 871 513 928 589 q 825 629 853 547 q 1065 708 911 708 q 1278 658 1193 708 q 1381 478 1381 597 q 1275 299 1381 361 q 1061 244 1186 244 m 1358 82 q 1060 -32 1244 -32 q 743 43 844 -32 q 617 333 629 128 q 576 507 610 426 q 457 613 531 617 l 561 685 q 774 547 713 663 q 819 294 819 460 q 899 135 819 210 q 1064 61 979 61 q 1336 193 1206 61 l 1358 82 m 633 51 q 540 6 608 26 q 435 -12 478 -12 q 175 74 282 -12 q 63 314 63 165 q 175 589 63 481 q 451 706 283 692 q 314 529 342 579 q 267 308 267 440 q 297 168 267 229 q 407 90 335 90 q 578 160 526 90 q 633 51 594 97 z "},"":{"ha":808,"x_min":44,"x_max":764,"o":"m 47 472 l 764 486 l 740 369 q 44 313 338 369 l 47 472 z "},"":{"ha":1215,"x_min":67,"x_max":1149,"o":"m 71 472 l 1149 486 l 1113 369 q 67 313 508 369 l 71 472 z "},"":{"ha":599,"x_min":74,"x_max":574,"o":"m 574 775 q 533 771 553 771 q 397 838 454 771 q 333 981 347 897 l 564 1103 q 507 958 507 1039 q 574 775 507 858 m 315 757 q 263 744 289 744 q 140 821 197 744 q 74 958 97 881 l 289 1085 q 251 939 251 1013 q 315 757 251 828 z "},"":{"ha":599,"x_min":74,"x_max":574,"o":"m 74 775 q 114 771 94 771 q 251 838 194 771 q 315 981 301 897 l 83 1103 q 142 958 142 1039 q 74 775 142 858 m 333 757 q 386 744 360 744 q 507 821 450 744 q 574 958 550 881 l 360 1085 q 397 939 397 1013 q 333 757 397 828 z "},"":{"ha":340,"x_min":74,"x_max":315,"o":"m 315 757 q 263 744 289 744 q 140 821 197 744 q 74 958 97 881 l 289 1085 q 251 939 251 1013 q 315 757 251 828 z "},"":{"ha":340,"x_min":74,"x_max":315,"o":"m 74 757 q 126 744 100 744 q 249 821 192 744 q 315 958 292 881 l 100 1085 q 138 939 138 1013 q 74 757 138 828 z "},"":{"ha":1215,"x_min":6,"x_max":1215,"o":"m 1171 989 l 1058 761 q 938 919 1035 864 q 738 968 853 968 q 678 965 707 968 l 757 1106 q 836 1121 792 1121 q 1171 989 988 1121 m 761 475 l 674 388 l 526 385 q 653 196 571 267 q 863 117 744 117 q 1182 299 1028 117 l 1215 194 q 747 -36 1015 -36 q 435 79 560 -36 q 278 374 319 188 q 6 343 140 363 l 108 481 l 260 479 q 261 586 256 535 q 6 557 132 576 l 108 694 l 288 693 q 422 951 336 844 q 663 1086 532 1090 l 674 1085 q 490 692 517 894 l 761 689 l 674 601 l 485 599 q 500 476 486 538 l 761 475 z "},"":{"ha":340,"x_min":74,"x_max":315,"o":"m 315 165 q 263 161 306 161 q 140 217 196 161 q 74 333 94 265 l 289 543 q 226 356 267 501 q 254 278 240 313 q 315 165 289 194 z "},"":{"ha":340,"x_min":74,"x_max":315,"o":"m 74 165 q 126 161 83 161 q 249 217 193 161 q 315 333 294 265 l 100 543 q 163 356 122 501 q 135 278 149 313 q 74 165 100 194 z "},"":{"ha":919,"x_min":51,"x_max":928,"o":"m 775 714 l 656 518 q 486 572 650 572 q 294 551 374 572 l 319 663 q 636 744 447 744 q 775 714 733 744 m 575 1122 q 507 943 543 968 q 319 986 389 953 q 228 622 228 864 q 328 24 228 333 l 115 -87 q 51 285 51 75 q 101 700 51 481 q 235 1097 150 913 q 446 1150 344 1150 q 575 1122 526 1150 m 928 1054 q 900 978 928 1011 q 828 940 869 940 q 776 965 796 940 q 757 1021 757 989 q 786 1098 757 1063 q 857 1133 815 1133 q 908 1110 889 1133 q 928 1054 928 1086 m 885 67 l 681 -71 q 621 232 621 25 q 681 731 621 469 l 775 714 q 758 551 758 633 q 792 300 758 428 q 885 67 825 165 z "},"":{"ha":938,"x_min":51,"x_max":883,"o":"m 585 679 l 465 483 q 342 556 458 556 q 294 551 318 556 l 319 663 q 476 708 400 708 q 585 679 544 708 m 575 1122 q 507 943 543 968 q 319 986 389 953 q 228 622 228 864 q 329 24 228 333 l 115 -87 q 51 285 51 75 q 101 700 51 481 q 235 1097 151 913 q 447 1150 346 1150 q 575 1122 528 1150 m 883 1100 q 801 547 801 872 q 875 26 801 276 q 638 -50 799 -50 q 629 199 629 51 q 799 1151 629 864 l 883 1100 z "},"":{"ha":283,"x_min":36,"x_max":247,"o":"m 247 419 q 215 334 247 374 q 138 294 182 294 q 65 332 96 294 q 36 408 36 365 q 69 494 36 454 q 146 533 101 533 q 217 498 188 533 q 247 419 247 463 z "},"":{"ha":340,"x_min":74,"x_max":315,"o":"m 74 -76 q 126 -89 100 -89 q 249 -12 192 -89 q 315 125 292 47 l 100 251 q 138 106 138 179 q 74 -76 138 -6 z "},"":{"ha":599,"x_min":74,"x_max":574,"o":"m 74 -58 q 114 -62 94 -62 q 251 4 194 -62 q 315 147 301 64 l 83 269 q 142 125 142 206 q 74 -58 142 25 m 333 -76 q 386 -89 360 -89 q 507 -12 450 -89 q 574 125 550 47 l 360 251 q 397 106 397 179 q 333 -76 397 -6 z "},"":{"ha":340,"x_min":65,"x_max":331,"o":"m 331 67 l 126 -71 q 65 232 65 25 q 126 731 65 469 l 219 714 q 204 551 204 633 q 236 300 204 428 q 331 67 271 165 z "},"":{"ha":532,"x_min":54,"x_max":542,"o":"m 542 850 q 431 815 486 815 q 324 846 376 815 q 240 924 272 876 q 103 799 133 849 l 54 835 l 285 1078 q 542 850 413 917 z "},"":{"ha":643,"x_min":76,"x_max":619,"o":"m 619 957 q 582 857 619 893 q 479 821 544 821 q 340 856 429 821 q 203 892 250 892 q 76 829 143 892 q 136 963 90 910 q 264 1024 188 1024 q 394 988 310 1024 q 524 953 479 953 q 611 1025 582 953 q 619 957 619 989 z "},"":{"ha":428,"x_min":29,"x_max":411,"o":"m 411 951 q 283 779 411 829 q 326 903 326 843 q 182 1007 326 1001 l 267 1100 l 282 1100 q 373 1053 335 1101 q 411 951 411 1006 m 258 860 l 174 767 l 158 767 q 67 814 106 767 q 29 915 29 861 q 157 1088 29 1038 q 114 963 114 1022 q 258 860 114 864 z "},"":{"ha":354,"x_min":335,"x_max":519,"o":"m 519 -172 q 368 36 519 -42 q 406 -104 406 -33 q 335 -231 406 -190 l 482 -300 q 519 -172 519 -244 z "},"":{"ha":532,"x_min":54,"x_max":542,"o":"m 54 1026 q 165 1061 110 1061 q 274 1029 219 1061 q 356 953 324 999 q 493 1078 463 1028 l 542 1042 l 310 799 q 54 1026 183 960 z "},"":{"ha":1161,"x_min":11,"x_max":1175,"o":"m 1175 347 l 1092 -26 q 865 -58 999 -58 q 601 -12 726 -58 l 554 140 q 722 110 622 110 q 1175 347 981 110 m 642 696 q 419 579 522 638 q 547 29 446 264 l 264 -61 q 238 331 238 136 q 242 467 238 399 q 94 347 153 406 l 11 483 l 253 619 q 374 1165 285 947 l 464 1110 q 413 731 411 919 l 413 710 l 578 803 l 642 696 z "},"":{"ha":619,"x_min":78,"x_max":578,"o":"m 578 617 l 424 531 q 524 33 440 271 q 289 -56 451 -46 q 263 425 263 158 q 143 318 194 374 l 78 443 l 265 556 q 388 1153 282 947 l 476 1106 q 419 647 418 917 l 531 714 l 578 617 z "},"":{"ha":1083,"x_min":29,"x_max":1079,"o":"m 982 1021 l 844 835 q 550 965 735 965 q 478 958 507 965 q 589 1064 533 1011 q 724 1100 639 1100 q 982 1021 861 1100 m 1079 303 q 921 49 1079 150 q 624 -42 783 -42 q 757 57 700 -1 q 831 200 831 132 q 647 368 831 286 q 307 518 478 443 q 125 758 125 621 q 265 957 125 858 q 499 1069 379 1038 q 346 869 346 967 q 536 688 346 790 q 889 510 713 599 q 1079 303 1079 400 m 686 61 q 568 -15 626 24 q 436 -57 497 -57 q 222 0 344 -57 q 29 117 119 49 l 210 331 q 397 140 282 215 q 650 60 522 60 q 686 61 668 60 m 304 1401 q 415 1436 360 1436 q 524 1404 469 1436 q 606 1328 574 1374 q 743 1453 713 1403 l 792 1417 l 560 1174 q 304 1401 433 1335 z "},"":{"ha":767,"x_min":0,"x_max":656,"o":"m 604 642 l 519 518 q 358 613 486 594 l 418 681 q 483 686 463 686 q 604 642 532 686 m 656 201 q 557 50 656 110 q 375 -10 479 3 q 478 151 478 67 q 375 276 478 225 q 183 360 279 318 q 81 496 81 414 q 153 631 81 572 q 300 686 221 686 q 350 681 325 686 q 274 557 274 610 q 372 469 274 517 q 556 374 521 400 q 656 201 656 303 m 367 83 q 311 29 339 57 q 247 -7 271 -7 q 0 100 168 -7 l 128 228 q 367 83 231 100 m 138 1026 q 249 1061 193 1061 q 357 1029 303 1061 q 439 953 407 999 q 576 1078 546 1028 l 625 1042 l 393 799 q 138 1026 267 960 z "},"":{"ha":831,"x_min":36,"x_max":890,"o":"m 518 601 l 465 514 q 196 733 317 574 q 36 1047 86 876 l 300 1161 q 365 861 317 1004 q 518 601 426 681 m 890 1114 q 706 421 863 749 q 249 -118 528 49 l 78 121 q 560 543 363 276 q 792 1135 774 832 l 890 1114 m 710 1339 q 685 1265 710 1299 q 619 1232 660 1232 q 564 1258 586 1232 q 542 1318 542 1285 q 567 1392 542 1360 q 632 1425 592 1425 q 688 1399 665 1425 q 710 1339 710 1374 m 458 1301 q 440 1248 458 1271 q 392 1225 421 1225 q 331 1256 356 1225 q 306 1324 306 1286 q 324 1376 306 1354 q 372 1399 343 1399 q 433 1368 408 1399 q 458 1301 458 1338 z "},"":{"ha":429,"x_min":0,"x_max":0,"o":""},"":{"ha":1415,"x_min":35,"x_max":1386,"o":"m 1386 -7 l 1139 -97 q 1083 518 1140 231 q 807 1007 997 950 l 925 1035 q 1269 571 1142 899 q 1386 -7 1378 293 m 1000 517 l 939 303 q 660 406 871 406 q 393 372 524 406 l 400 442 q 744 561 535 561 q 1000 517 886 561 m 849 1097 q 421 718 564 1047 q 307 107 307 458 q 310 0 307 51 l 49 -83 l 44 26 q 146 543 35 300 q 469 968 257 786 q 576 1049 507 999 q 683 1111 664 1111 q 849 1097 683 1111 m 390 1351 q 601 1279 499 1328 q 783 1151 718 1224 q 683 1347 765 1257 q 503 1474 607 1433 l 390 1351 z "},"":{"ha":1415,"x_min":35,"x_max":1386,"o":"m 1386 -7 l 1139 -97 q 1083 518 1140 231 q 807 1007 997 950 l 925 1035 q 1269 571 1142 899 q 1386 -7 1378 293 m 1000 517 l 939 303 q 660 406 871 406 q 393 372 524 406 l 400 442 q 744 561 535 561 q 1000 517 886 561 m 849 1097 q 421 718 564 1047 q 307 107 307 458 q 310 0 307 51 l 49 -83 l 44 26 q 146 543 35 300 q 469 968 257 786 q 576 1049 507 999 q 683 1111 664 1111 q 849 1097 683 1111 m 926 1314 q 706 1281 815 1311 q 504 1186 581 1246 q 636 1363 540 1288 q 836 1454 726 1433 l 926 1314 z "},"":{"ha":1415,"x_min":35,"x_max":1386,"o":"m 1386 -7 l 1139 -97 q 1083 518 1140 231 q 807 1007 997 950 l 925 1035 q 1269 571 1142 899 q 1386 -7 1378 293 m 1000 517 l 939 303 q 660 406 871 406 q 393 372 524 406 l 400 442 q 744 561 535 561 q 1000 517 886 561 m 849 1097 q 421 718 564 1047 q 307 107 307 458 q 310 0 307 51 l 49 -83 l 44 26 q 146 543 35 300 q 469 968 257 786 q 576 1049 507 999 q 683 1111 664 1111 q 849 1097 683 1111 m 992 1225 q 881 1190 936 1190 q 774 1221 826 1190 q 690 1299 722 1251 q 553 1174 583 1224 l 504 1210 l 735 1453 q 992 1225 863 1292 z "},"":{"ha":1415,"x_min":35,"x_max":1386,"o":"m 1386 -7 l 1139 -97 q 1083 518 1140 231 q 807 1007 997 950 l 925 1035 q 1269 571 1142 899 q 1386 -7 1378 293 m 1000 517 l 939 303 q 660 406 871 406 q 393 372 524 406 l 400 442 q 744 561 535 561 q 1000 517 886 561 m 849 1097 q 421 718 564 1047 q 307 107 307 458 q 310 0 307 51 l 49 -83 l 44 26 q 146 543 35 300 q 469 968 257 786 q 576 1049 507 999 q 683 1111 664 1111 q 849 1097 683 1111 m 969 1332 q 931 1232 969 1268 q 829 1196 893 1196 q 690 1231 779 1196 q 553 1267 600 1267 q 426 1204 493 1267 q 486 1338 440 1285 q 614 1399 538 1399 q 744 1363 660 1399 q 874 1328 829 1328 q 961 1400 932 1328 q 969 1332 969 1364 z "},"":{"ha":1415,"x_min":35,"x_max":1386,"o":"m 1386 -7 l 1139 -97 q 1083 518 1140 231 q 807 1007 997 950 l 925 1035 q 1269 571 1142 899 q 1386 -7 1378 293 m 1000 517 l 939 303 q 660 406 871 406 q 393 372 524 406 l 400 442 q 744 561 535 561 q 1000 517 886 561 m 849 1097 q 421 718 564 1047 q 307 107 307 458 q 310 0 307 51 l 49 -83 l 44 26 q 146 543 35 300 q 469 968 257 786 q 576 1049 507 999 q 683 1111 664 1111 q 849 1097 683 1111 m 951 1331 q 926 1257 951 1290 q 861 1224 901 1224 q 806 1250 828 1224 q 783 1310 783 1276 q 808 1384 783 1351 q 874 1417 833 1417 q 929 1391 907 1417 q 951 1331 951 1365 m 700 1293 q 681 1240 700 1263 q 633 1217 663 1217 q 572 1247 597 1217 q 547 1315 547 1278 q 566 1368 547 1346 q 614 1390 585 1390 q 675 1360 650 1390 q 700 1293 700 1329 z "},"":{"ha":1415,"x_min":35,"x_max":1386,"o":"m 1386 -7 l 1139 -97 q 1083 518 1140 231 q 807 1007 997 950 l 925 1035 q 1269 571 1142 899 q 1386 -7 1378 293 m 1000 517 l 939 303 q 660 406 871 406 q 393 372 524 406 l 400 442 q 744 561 535 561 q 1000 517 886 561 m 849 1097 q 421 718 564 1047 q 307 107 307 458 q 310 0 307 51 l 49 -83 l 44 26 q 146 543 35 300 q 469 968 257 786 q 576 1049 507 999 q 683 1111 664 1111 q 849 1097 683 1111 m 911 1326 q 783 1154 911 1204 q 826 1278 826 1218 q 682 1382 826 1376 l 767 1475 l 782 1475 q 873 1428 835 1476 q 911 1326 911 1381 m 758 1235 l 674 1142 l 658 1142 q 567 1189 606 1142 q 529 1290 529 1236 q 657 1463 529 1413 q 614 1338 614 1397 q 758 1235 614 1239 z "},"":{"ha":1200,"x_min":24,"x_max":1228,"o":"m 1174 979 l 1035 751 q 678 978 932 978 q 538 958 597 978 q 633 1071 586 1014 q 760 1113 679 1113 q 1174 979 947 1113 m 1228 186 q 988 7 1126 71 q 696 -57 849 -57 q 229 88 417 -57 q 24 517 24 246 q 192 889 24 703 q 544 1076 364 1082 l 558 1076 q 276 565 276 833 q 414 217 276 361 q 756 74 551 74 q 1188 289 978 74 l 1228 186 m 728 -172 q 576 36 728 -42 q 614 -104 614 -33 q 543 -231 614 -190 l 690 -300 q 728 -172 728 -244 z "},"":{"ha":1164,"x_min":29,"x_max":1178,"o":"m 1143 958 l 999 758 q 836 933 963 874 q 592 983 731 983 q 522 979 556 983 q 636 1069 579 1025 q 768 1103 689 1103 q 968 1061 864 1103 q 1143 958 1068 1022 m 799 628 l 674 435 q 476 515 642 515 q 343 503 406 515 l 357 600 q 613 672 485 672 q 799 628 726 672 m 1178 124 q 703 -61 983 -61 q 235 74 418 -61 q 29 499 29 224 q 174 882 29 708 q 536 1069 328 1067 q 346 819 413 968 q 282 513 282 676 q 399 176 282 301 q 725 51 517 51 q 954 97 847 51 q 1136 242 1074 149 l 1178 124 m 390 1351 q 601 1279 499 1328 q 783 1151 718 1224 q 683 1347 765 1257 q 503 1474 607 1433 l 390 1351 z "},"":{"ha":1164,"x_min":29,"x_max":1178,"o":"m 1143 958 l 999 758 q 836 933 963 874 q 592 983 731 983 q 522 979 556 983 q 636 1069 579 1025 q 768 1103 689 1103 q 968 1061 864 1103 q 1143 958 1068 1022 m 799 628 l 674 435 q 476 515 642 515 q 343 503 406 515 l 357 600 q 613 672 485 672 q 799 628 726 672 m 1178 124 q 703 -61 983 -61 q 235 74 418 -61 q 29 499 29 224 q 174 882 29 708 q 536 1069 328 1067 q 346 819 413 968 q 282 513 282 676 q 399 176 282 301 q 725 51 517 51 q 954 97 847 51 q 1136 242 1074 149 l 1178 124 m 843 1314 q 622 1281 732 1311 q 421 1186 497 1246 q 553 1363 457 1288 q 753 1454 643 1433 l 843 1314 z "},"":{"ha":1164,"x_min":29,"x_max":1178,"o":"m 1143 958 l 999 758 q 836 933 963 874 q 592 983 731 983 q 522 979 556 983 q 636 1069 579 1025 q 768 1103 689 1103 q 968 1061 864 1103 q 1143 958 1068 1022 m 799 628 l 674 435 q 476 515 642 515 q 343 503 406 515 l 357 600 q 613 672 485 672 q 799 628 726 672 m 1178 124 q 703 -61 983 -61 q 235 74 418 -61 q 29 499 29 224 q 174 882 29 708 q 536 1069 328 1067 q 346 819 413 968 q 282 513 282 676 q 399 176 282 301 q 725 51 517 51 q 954 97 847 51 q 1136 242 1074 149 l 1178 124 m 908 1225 q 797 1190 853 1190 q 691 1221 743 1190 q 607 1299 639 1251 q 469 1174 500 1224 l 421 1210 l 651 1453 q 908 1225 779 1292 z "},"":{"ha":1164,"x_min":29,"x_max":1178,"o":"m 1143 958 l 999 758 q 836 933 963 874 q 592 983 731 983 q 522 979 556 983 q 636 1069 579 1025 q 768 1103 689 1103 q 968 1061 864 1103 q 1143 958 1068 1022 m 799 628 l 674 435 q 476 515 642 515 q 343 503 406 515 l 357 600 q 613 672 485 672 q 799 628 726 672 m 1178 124 q 703 -61 983 -61 q 235 74 418 -61 q 29 499 29 224 q 174 882 29 708 q 536 1069 328 1067 q 346 819 413 968 q 282 513 282 676 q 399 176 282 301 q 725 51 517 51 q 954 97 847 51 q 1136 242 1074 149 l 1178 124 m 860 1339 q 835 1265 860 1299 q 769 1232 810 1232 q 714 1258 736 1232 q 692 1318 692 1285 q 717 1392 692 1360 q 782 1425 742 1425 q 838 1399 815 1425 q 860 1339 860 1374 m 608 1301 q 590 1248 608 1271 q 542 1225 571 1225 q 481 1256 506 1225 q 456 1324 456 1286 q 474 1376 456 1354 q 522 1399 493 1399 q 583 1368 558 1399 q 608 1301 608 1338 z "},"":{"ha":407,"x_min":40,"x_max":433,"o":"m 351 24 l 117 -86 q 71 288 71 68 q 206 1169 71 761 l 317 1121 q 260 710 260 947 q 351 24 260 349 m 40 1351 q 251 1279 149 1328 q 433 1151 368 1224 q 333 1347 415 1257 q 153 1474 257 1433 l 40 1351 z "},"":{"ha":407,"x_min":71,"x_max":535,"o":"m 351 24 l 117 -86 q 71 288 71 68 q 206 1169 71 761 l 317 1121 q 260 710 260 947 q 351 24 260 349 m 535 1314 q 314 1281 424 1311 q 113 1186 189 1246 q 244 1363 149 1288 q 444 1454 335 1433 l 535 1314 z "},"":{"ha":407,"x_min":63,"x_max":550,"o":"m 351 24 l 117 -86 q 71 288 71 68 q 206 1169 71 761 l 317 1121 q 260 710 260 947 q 351 24 260 349 m 550 1225 q 439 1190 494 1190 q 333 1221 385 1190 q 249 1299 281 1251 q 111 1174 142 1224 l 63 1210 l 293 1453 q 550 1225 421 1292 z "},"":{"ha":407,"x_min":71,"x_max":493,"o":"m 351 24 l 117 -86 q 71 288 71 68 q 206 1169 71 761 l 317 1121 q 260 710 260 947 q 351 24 260 349 m 493 1339 q 468 1265 493 1299 q 403 1232 443 1232 q 347 1258 369 1232 q 325 1318 325 1285 q 350 1392 325 1360 q 415 1425 375 1425 q 471 1399 449 1425 q 493 1339 493 1374 m 242 1301 q 223 1248 242 1271 q 175 1225 204 1225 q 114 1256 139 1225 q 89 1324 89 1286 q 108 1376 89 1354 q 156 1399 126 1399 q 217 1368 192 1399 q 242 1301 242 1338 z "},"":{"ha":1357,"x_min":42,"x_max":1332,"o":"m 1332 601 q 1201 230 1332 390 q 863 22 1069 69 q 1033 253 969 118 q 1096 532 1096 389 q 940 883 1096 749 q 571 1011 792 1011 q 104 788 301 1011 l 42 953 q 649 1119 296 1119 q 1104 993 908 1119 q 1332 601 1332 846 m 890 182 q 719 4 783 51 q 489 -68 619 -68 q 319 -33 406 -68 q 172 60 232 1 q 408 429 368 211 q 242 396 319 415 l 244 556 l 418 553 q 351 836 414 715 q 607 933 431 913 q 664 690 664 814 q 646 550 664 622 l 783 549 l 765 453 q 611 449 685 453 q 414 169 540 281 q 638 82 518 82 q 890 182 782 82 z "},"":{"ha":1218,"x_min":67,"x_max":1183,"o":"m 1183 729 q 1006 -56 1183 361 l 908 -21 q 982 364 982 150 q 894 856 982 632 q 775 879 842 879 q 539 828 672 879 q 322 717 425 785 l 329 828 q 667 1046 476 960 q 1054 1146 871 1139 q 1183 729 1183 1004 m 378 7 l 115 -104 q 67 328 67 71 q 246 1139 67 765 l 315 1083 q 251 600 251 874 q 378 7 251 263 m 886 1332 q 848 1232 886 1268 q 746 1196 810 1196 q 606 1231 696 1196 q 469 1267 517 1267 q 343 1204 410 1267 q 403 1338 357 1285 q 531 1399 454 1399 q 661 1363 576 1399 q 790 1328 746 1328 q 878 1400 849 1328 q 886 1332 886 1364 z "},"":{"ha":1453,"x_min":49,"x_max":1424,"o":"m 1424 618 q 1289 244 1424 424 q 978 -7 1163 74 q 1185 514 1185 236 q 1043 869 1185 708 q 711 1029 901 1029 q 585 1007 647 1029 l 715 1132 q 826 1139 772 1139 q 1238 999 1064 1139 q 1424 618 1424 850 m 957 117 l 867 -28 q 642 -53 749 -53 q 225 82 389 -53 q 49 475 49 226 q 213 874 49 679 q 578 1097 376 1069 q 371 851 444 993 q 294 542 294 706 q 427 206 294 332 q 771 79 560 79 q 957 117 892 79 m 474 1351 q 685 1279 582 1328 q 867 1151 801 1224 q 767 1347 849 1257 q 586 1474 690 1433 l 474 1351 z "},"":{"ha":1453,"x_min":49,"x_max":1424,"o":"m 1424 618 q 1289 244 1424 424 q 978 -7 1163 74 q 1185 514 1185 236 q 1043 869 1185 708 q 711 1029 901 1029 q 585 1007 647 1029 l 715 1132 q 826 1139 772 1139 q 1238 999 1064 1139 q 1424 618 1424 850 m 957 117 l 867 -28 q 642 -53 749 -53 q 225 82 389 -53 q 49 475 49 226 q 213 874 49 679 q 578 1097 376 1069 q 371 851 444 993 q 294 542 294 706 q 427 206 294 332 q 771 79 560 79 q 957 117 892 79 m 843 1314 q 622 1281 732 1311 q 421 1186 497 1246 q 553 1363 457 1288 q 753 1454 643 1433 l 843 1314 z "},"":{"ha":1453,"x_min":49,"x_max":1424,"o":"m 1424 618 q 1289 244 1424 424 q 978 -7 1163 74 q 1185 514 1185 236 q 1043 869 1185 708 q 711 1029 901 1029 q 585 1007 647 1029 l 715 1132 q 826 1139 772 1139 q 1238 999 1064 1139 q 1424 618 1424 850 m 957 117 l 867 -28 q 642 -53 749 -53 q 225 82 389 -53 q 49 475 49 226 q 213 874 49 679 q 578 1097 376 1069 q 371 851 444 993 q 294 542 294 706 q 427 206 294 332 q 771 79 560 79 q 957 117 892 79 m 992 1225 q 881 1190 936 1190 q 774 1221 826 1190 q 690 1299 722 1251 q 553 1174 583 1224 l 504 1210 l 735 1453 q 992 1225 863 1292 z "},"":{"ha":1453,"x_min":49,"x_max":1424,"o":"m 1424 618 q 1289 244 1424 424 q 978 -7 1163 74 q 1185 514 1185 236 q 1043 869 1185 708 q 711 1029 901 1029 q 585 1007 647 1029 l 715 1132 q 826 1139 772 1139 q 1238 999 1064 1139 q 1424 618 1424 850 m 957 117 l 867 -28 q 642 -53 749 -53 q 225 82 389 -53 q 49 475 49 226 q 213 874 49 679 q 578 1097 376 1069 q 371 851 444 993 q 294 542 294 706 q 427 206 294 332 q 771 79 560 79 q 957 117 892 79 m 969 1332 q 931 1232 969 1268 q 829 1196 893 1196 q 690 1231 779 1196 q 553 1267 600 1267 q 426 1204 493 1267 q 486 1338 440 1285 q 614 1399 538 1399 q 744 1363 660 1399 q 874 1328 829 1328 q 961 1400 932 1328 q 969 1332 969 1364 z "},"":{"ha":1453,"x_min":49,"x_max":1424,"o":"m 1424 618 q 1289 244 1424 424 q 978 -7 1163 74 q 1185 514 1185 236 q 1043 869 1185 708 q 711 1029 901 1029 q 585 1007 647 1029 l 715 1132 q 826 1139 772 1139 q 1238 999 1064 1139 q 1424 618 1424 850 m 957 117 l 867 -28 q 642 -53 749 -53 q 225 82 389 -53 q 49 475 49 226 q 213 874 49 679 q 578 1097 376 1069 q 371 851 444 993 q 294 542 294 706 q 427 206 294 332 q 771 79 560 79 q 957 117 892 79 m 910 1339 q 885 1265 910 1299 q 819 1232 860 1232 q 764 1258 786 1232 q 742 1318 742 1285 q 767 1392 742 1360 q 832 1425 792 1425 q 888 1399 865 1425 q 910 1339 910 1374 m 658 1301 q 640 1248 658 1271 q 592 1225 621 1225 q 531 1256 556 1225 q 506 1324 506 1286 q 524 1376 506 1354 q 572 1399 543 1399 q 633 1368 608 1399 q 658 1301 658 1338 z "},"":{"ha":1213,"x_min":60,"x_max":1176,"o":"m 1176 635 q 892 79 1176 300 q 986 538 986 290 q 808 1026 986 836 l 1015 1161 q 1133 909 1090 1051 q 1176 635 1176 767 m 876 199 q 776 11 847 69 q 576 -47 706 -47 q 204 126 354 -47 q 60 517 60 292 q 115 849 60 675 q 260 1156 169 1022 l 358 1104 q 238 697 238 904 q 351 322 238 485 q 683 140 479 140 q 876 199 782 140 m 390 1351 q 601 1279 499 1328 q 783 1151 718 1224 q 683 1347 765 1257 q 503 1474 607 1433 l 390 1351 z "},"":{"ha":1213,"x_min":60,"x_max":1176,"o":"m 1176 635 q 892 79 1176 300 q 986 538 986 290 q 808 1026 986 836 l 1015 1161 q 1133 909 1090 1051 q 1176 635 1176 767 m 876 199 q 776 11 847 69 q 576 -47 706 -47 q 204 126 354 -47 q 60 517 60 292 q 115 849 60 675 q 260 1156 169 1022 l 358 1104 q 238 697 238 904 q 351 322 238 485 q 683 140 479 140 q 876 199 782 140 m 843 1314 q 622 1281 732 1311 q 421 1186 497 1246 q 553 1363 457 1288 q 753 1454 643 1433 l 843 1314 z "},"":{"ha":1213,"x_min":60,"x_max":1176,"o":"m 1176 635 q 892 79 1176 300 q 986 538 986 290 q 808 1026 986 836 l 1015 1161 q 1133 909 1090 1051 q 1176 635 1176 767 m 876 199 q 776 11 847 69 q 576 -47 706 -47 q 204 126 354 -47 q 60 517 60 292 q 115 849 60 675 q 260 1156 169 1022 l 358 1104 q 238 697 238 904 q 351 322 238 485 q 683 140 479 140 q 876 199 782 140 m 883 1225 q 772 1190 828 1190 q 666 1221 718 1190 q 582 1299 614 1251 q 444 1174 475 1224 l 396 1210 l 626 1453 q 883 1225 754 1292 z "},"":{"ha":1213,"x_min":60,"x_max":1176,"o":"m 1176 635 q 892 79 1176 300 q 986 538 986 290 q 808 1026 986 836 l 1015 1161 q 1133 909 1090 1051 q 1176 635 1176 767 m 876 199 q 776 11 847 69 q 576 -47 706 -47 q 204 126 354 -47 q 60 517 60 292 q 115 849 60 675 q 260 1156 169 1022 l 358 1104 q 238 697 238 904 q 351 322 238 485 q 683 140 479 140 q 876 199 782 140 m 801 1339 q 776 1265 801 1299 q 711 1232 751 1232 q 656 1258 678 1232 q 633 1318 633 1285 q 658 1392 633 1360 q 724 1425 683 1425 q 779 1399 757 1425 q 801 1339 801 1374 m 550 1301 q 531 1248 550 1271 q 483 1225 513 1225 q 422 1256 447 1225 q 397 1324 397 1286 q 416 1376 397 1354 q 464 1399 435 1399 q 525 1368 500 1399 q 550 1301 550 1338 z "},"":{"ha":831,"x_min":36,"x_max":890,"o":"m 518 601 l 465 514 q 196 733 317 574 q 36 1047 86 876 l 300 1161 q 365 861 317 1004 q 518 601 426 681 m 890 1114 q 706 421 863 749 q 249 -118 528 49 l 78 121 q 560 543 363 276 q 792 1135 774 832 l 890 1114 m 760 1314 q 539 1281 649 1311 q 338 1186 414 1246 q 469 1363 374 1288 q 669 1454 560 1433 l 760 1314 z "},"":{"ha":985,"x_min":25,"x_max":1051,"o":"m 1051 738 q 785 396 1051 518 q 329 296 582 303 l 322 399 l 346 399 q 644 471 521 396 q 789 728 789 560 q 700 808 789 774 q 571 839 626 839 q 288 758 425 839 l 281 840 q 479 933 344 897 q 699 965 597 965 q 928 917 832 965 q 1051 738 1051 857 m 306 61 l 57 -83 q 25 272 25 86 q 174 1146 25 768 l 264 1076 q 206 719 206 935 q 306 61 206 396 z "},"":{"ha":911,"x_min":60,"x_max":917,"o":"m 917 -11 q 829 -28 871 -28 q 646 101 688 -28 q 601 368 624 235 q 443 586 565 532 l 625 663 q 768 449 732 622 q 807 149 788 299 q 917 -11 832 -6 m 514 671 q 157 458 368 636 l 60 569 q 198 666 114 629 q 363 703 282 703 q 514 671 439 703 m 578 58 q 444 -4 540 17 q 293 -21 369 -21 q 144 38 218 -21 q 68 174 65 100 q 193 346 71 271 q 406 414 303 414 q 539 390 472 414 l 536 304 q 497 308 519 308 q 365 281 432 308 q 282 188 283 244 q 314 112 281 143 q 390 81 347 81 q 547 151 458 81 l 578 58 m 224 976 q 435 904 332 953 q 617 776 551 849 q 517 972 599 882 q 336 1099 440 1058 l 224 976 z "},"":{"ha":911,"x_min":60,"x_max":917,"o":"m 917 -11 q 829 -28 871 -28 q 646 101 688 -28 q 601 368 624 235 q 443 586 565 532 l 625 663 q 768 449 732 622 q 807 149 788 299 q 917 -11 832 -6 m 514 671 q 157 458 368 636 l 60 569 q 198 666 114 629 q 363 703 282 703 q 514 671 439 703 m 578 58 q 444 -4 540 17 q 293 -21 369 -21 q 144 38 218 -21 q 68 174 65 100 q 193 346 71 271 q 406 414 303 414 q 539 390 472 414 l 536 304 q 497 308 519 308 q 365 281 432 308 q 282 188 283 244 q 314 112 281 143 q 390 81 347 81 q 547 151 458 81 l 578 58 m 643 939 q 422 906 532 936 q 221 811 297 871 q 353 988 257 913 q 553 1079 443 1058 l 643 939 z "},"":{"ha":911,"x_min":60,"x_max":917,"o":"m 917 -11 q 829 -28 871 -28 q 646 101 688 -28 q 601 368 624 235 q 443 586 565 532 l 625 663 q 768 449 732 622 q 807 149 788 299 q 917 -11 832 -6 m 514 671 q 157 458 368 636 l 60 569 q 198 666 114 629 q 363 703 282 703 q 514 671 439 703 m 578 58 q 444 -4 540 17 q 293 -21 369 -21 q 144 38 218 -21 q 68 174 65 100 q 193 346 71 271 q 406 414 303 414 q 539 390 472 414 l 536 304 q 497 308 519 308 q 365 281 432 308 q 282 188 283 244 q 314 112 281 143 q 390 81 347 81 q 547 151 458 81 l 578 58 m 667 850 q 556 815 611 815 q 449 846 501 815 q 365 924 397 876 q 228 799 258 849 l 179 835 l 410 1078 q 667 850 538 917 z "},"":{"ha":911,"x_min":60,"x_max":917,"o":"m 917 -11 q 829 -28 871 -28 q 646 101 688 -28 q 601 368 624 235 q 443 586 565 532 l 625 663 q 768 449 732 622 q 807 149 788 299 q 917 -11 832 -6 m 514 671 q 157 458 368 636 l 60 569 q 198 666 114 629 q 363 703 282 703 q 514 671 439 703 m 578 58 q 444 -4 540 17 q 293 -21 369 -21 q 144 38 218 -21 q 68 174 65 100 q 193 346 71 271 q 406 414 303 414 q 539 390 472 414 l 536 304 q 497 308 519 308 q 365 281 432 308 q 282 188 283 244 q 314 112 281 143 q 390 81 347 81 q 547 151 458 81 l 578 58 m 703 957 q 665 857 703 893 q 563 821 626 821 q 423 856 513 821 q 286 892 333 892 q 160 829 226 892 q 219 963 174 910 q 347 1024 271 1024 q 478 988 393 1024 q 607 953 563 953 q 694 1025 665 953 q 703 957 703 989 z "},"":{"ha":911,"x_min":60,"x_max":917,"o":"m 917 -11 q 829 -28 871 -28 q 646 101 688 -28 q 601 368 624 235 q 443 586 565 532 l 625 663 q 768 449 732 622 q 807 149 788 299 q 917 -11 832 -6 m 514 671 q 157 458 368 636 l 60 569 q 198 666 114 629 q 363 703 282 703 q 514 671 439 703 m 578 58 q 444 -4 540 17 q 293 -21 369 -21 q 144 38 218 -21 q 68 174 65 100 q 193 346 71 271 q 406 414 303 414 q 539 390 472 414 l 536 304 q 497 308 519 308 q 365 281 432 308 q 282 188 283 244 q 314 112 281 143 q 390 81 347 81 q 547 151 458 81 l 578 58 m 618 964 q 593 890 618 924 q 528 857 568 857 q 472 883 494 857 q 450 943 450 910 q 475 1017 450 985 q 540 1050 500 1050 q 596 1024 574 1050 q 618 964 618 999 m 367 926 q 348 873 367 896 q 300 850 329 850 q 239 881 264 850 q 214 949 214 911 q 233 1001 214 979 q 281 1024 251 1024 q 342 993 317 1024 q 367 926 367 963 z "},"":{"ha":911,"x_min":60,"x_max":917,"o":"m 917 -11 q 829 -28 871 -28 q 646 101 688 -28 q 601 368 624 235 q 443 586 565 532 l 625 663 q 768 449 732 622 q 807 149 788 299 q 917 -11 832 -6 m 514 671 q 157 458 368 636 l 60 569 q 198 666 114 629 q 363 703 282 703 q 514 671 439 703 m 578 58 q 444 -4 540 17 q 293 -21 369 -21 q 144 38 218 -21 q 68 174 65 100 q 193 346 71 271 q 406 414 303 414 q 539 390 472 414 l 536 304 q 497 308 519 308 q 365 281 432 308 q 282 188 283 244 q 314 112 281 143 q 390 81 347 81 q 547 151 458 81 l 578 58 m 578 951 q 450 779 578 829 q 493 903 493 843 q 349 1007 493 1001 l 433 1100 l 449 1100 q 540 1053 501 1101 q 578 951 578 1006 m 425 860 l 340 767 l 325 767 q 234 814 272 767 q 196 915 196 861 q 324 1088 196 1038 q 281 963 281 1022 q 425 860 281 864 z "},"":{"ha":821,"x_min":53,"x_max":768,"o":"m 760 594 l 607 458 q 532 546 582 511 q 425 581 482 581 q 393 578 408 581 l 504 688 q 557 693 531 693 q 760 594 681 693 m 768 100 q 601 6 721 42 q 407 -24 501 -24 q 157 56 254 -24 q 53 289 53 140 q 161 558 53 447 q 419 706 257 657 q 303 540 351 638 q 249 347 249 433 q 321 183 249 267 q 474 100 393 100 q 735 228 654 100 l 768 100 m 519 -172 q 368 36 519 -42 q 406 -104 406 -33 q 335 -231 406 -190 l 482 -300 q 519 -172 519 -244 z "},"":{"ha":899,"x_min":67,"x_max":825,"o":"m 825 463 q 715 289 825 354 q 506 236 619 233 l 458 236 l 399 356 q 476 332 431 332 q 572 361 528 332 q 622 443 622 393 q 580 532 622 494 q 485 578 538 569 q 560 649 493 614 q 663 679 619 679 q 782 603 732 679 q 825 463 825 535 m 817 83 q 494 -42 701 -42 q 67 313 67 -42 q 214 574 67 460 q 501 679 351 679 q 274 329 274 504 q 344 140 274 224 q 524 53 419 53 q 790 194 660 53 l 817 83 m 257 976 q 468 904 365 953 q 650 776 585 849 q 550 972 632 882 q 369 1099 474 1058 l 257 976 z "},"":{"ha":899,"x_min":67,"x_max":825,"o":"m 825 463 q 715 289 825 354 q 506 236 619 233 l 458 236 l 399 356 q 476 332 431 332 q 572 361 528 332 q 622 443 622 393 q 580 532 622 494 q 485 578 538 569 q 560 649 493 614 q 663 679 619 679 q 782 603 732 679 q 825 463 825 535 m 817 83 q 494 -42 701 -42 q 67 313 67 -42 q 214 574 67 460 q 501 679 351 679 q 274 329 274 504 q 344 140 274 224 q 524 53 419 53 q 790 194 660 53 l 817 83 m 651 939 q 431 906 540 936 q 229 811 306 871 q 361 988 265 913 q 561 1079 451 1058 l 651 939 z "},"":{"ha":899,"x_min":67,"x_max":825,"o":"m 825 463 q 715 289 825 354 q 506 236 619 233 l 458 236 l 399 356 q 476 332 431 332 q 572 361 528 332 q 622 443 622 393 q 580 532 622 494 q 485 578 538 569 q 560 649 493 614 q 663 679 619 679 q 782 603 732 679 q 825 463 825 535 m 817 83 q 494 -42 701 -42 q 67 313 67 -42 q 214 574 67 460 q 501 679 351 679 q 274 329 274 504 q 344 140 274 224 q 524 53 419 53 q 790 194 660 53 l 817 83 m 708 850 q 597 815 653 815 q 491 846 543 815 q 407 924 439 876 q 269 799 300 849 l 221 835 l 451 1078 q 708 850 579 917 z "},"":{"ha":899,"x_min":67,"x_max":825,"o":"m 825 463 q 715 289 825 354 q 506 236 619 233 l 458 236 l 399 356 q 476 332 431 332 q 572 361 528 332 q 622 443 622 393 q 580 532 622 494 q 485 578 538 569 q 560 649 493 614 q 663 679 619 679 q 782 603 732 679 q 825 463 825 535 m 817 83 q 494 -42 701 -42 q 67 313 67 -42 q 214 574 67 460 q 501 679 351 679 q 274 329 274 504 q 344 140 274 224 q 524 53 419 53 q 790 194 660 53 l 817 83 m 660 964 q 635 890 660 924 q 569 857 610 857 q 514 883 536 857 q 492 943 492 910 q 517 1017 492 985 q 582 1050 542 1050 q 638 1024 615 1050 q 660 964 660 999 m 408 926 q 390 873 408 896 q 342 850 371 850 q 281 881 306 850 q 256 949 256 911 q 274 1001 256 979 q 322 1024 293 1024 q 383 993 358 1024 q 408 926 408 963 z "},"":{"ha":364,"x_min":-26,"x_max":367,"o":"m 331 67 l 126 -71 q 65 232 65 25 q 126 731 65 469 l 219 714 q 204 551 204 633 q 236 300 204 428 q 331 67 271 165 m -26 976 q 185 904 82 953 q 367 776 301 849 q 267 972 349 882 q 86 1099 190 1058 l -26 976 z "},"":{"ha":364,"x_min":21,"x_max":443,"o":"m 331 67 l 126 -71 q 65 232 65 25 q 126 731 65 469 l 219 714 q 204 551 204 633 q 236 300 204 428 q 331 67 271 165 m 443 939 q 222 906 332 936 q 21 811 97 871 q 153 988 57 913 q 353 1079 243 1058 l 443 939 z "},"":{"ha":364,"x_min":-37,"x_max":450,"o":"m 331 67 l 126 -71 q 65 232 65 25 q 126 731 65 469 l 219 714 q 204 551 204 633 q 236 300 204 428 q 331 67 271 165 m 450 850 q 339 815 394 815 q 233 846 285 815 q 149 924 181 876 q 11 799 42 849 l -37 835 l 193 1078 q 450 850 321 917 z "},"":{"ha":364,"x_min":-28,"x_max":376,"o":"m 331 67 l 126 -71 q 65 232 65 25 q 126 731 65 469 l 219 714 q 204 551 204 633 q 236 300 204 428 q 331 67 271 165 m 376 964 q 351 890 376 924 q 286 857 326 857 q 231 883 253 857 q 208 943 208 910 q 233 1017 208 985 q 299 1050 258 1050 q 354 1024 332 1050 q 376 964 376 999 m 125 926 q 106 873 125 896 q 58 850 88 850 q -3 881 22 850 q -28 949 -28 911 q -9 1001 -28 979 q 39 1024 10 1024 q 100 993 75 1024 q 125 926 125 963 z "},"":{"ha":768,"x_min":63,"x_max":711,"o":"m 711 340 q 695 196 711 242 q 615 67 679 150 q 622 160 622 106 q 336 811 622 618 q 238 672 274 735 l 153 747 l 256 853 q 99 908 161 896 l 194 1094 q 396 999 292 1064 l 510 1117 l 574 1058 q 463 951 515 1004 q 711 340 711 740 m 574 168 l 524 36 q 335 -24 424 -24 q 142 67 221 -24 q 63 272 63 158 q 292 644 63 492 q 238 531 247 560 q 214 408 214 471 q 425 138 214 138 q 574 168 492 138 z "},"":{"ha":858,"x_min":74,"x_max":781,"o":"m 781 413 q 696 -47 781 171 l 601 -14 q 638 186 638 65 q 551 492 638 353 q 396 510 463 510 q 321 500 344 510 l 313 586 q 681 715 504 724 l 713 714 q 781 413 781 592 m 304 189 q 286 -47 304 38 l 74 29 q 154 475 154 253 q 125 679 154 607 l 226 714 q 304 189 304 449 z "},"":{"ha":856,"x_min":64,"x_max":822,"o":"m 822 356 q 701 108 822 217 q 449 -19 594 11 q 568 119 521 36 q 618 296 618 208 q 579 488 618 390 q 449 603 529 611 l 550 679 q 753 575 678 668 q 822 356 822 486 m 449 83 l 346 -11 q 142 79 225 -15 q 64 290 64 168 q 168 569 64 461 q 439 696 268 675 q 313 524 338 569 q 268 313 268 438 q 300 158 268 221 q 419 81 340 81 q 449 83 433 81 m 224 976 q 435 904 332 953 q 617 776 551 849 q 517 972 599 882 q 336 1099 440 1058 l 224 976 z "},"":{"ha":856,"x_min":64,"x_max":822,"o":"m 822 356 q 701 108 822 217 q 449 -19 594 11 q 568 119 521 36 q 618 296 618 208 q 579 488 618 390 q 449 603 529 611 l 550 679 q 753 575 678 668 q 822 356 822 486 m 449 83 l 346 -11 q 142 79 225 -15 q 64 290 64 168 q 168 569 64 461 q 439 696 268 675 q 313 524 338 569 q 268 313 268 438 q 300 158 268 221 q 419 81 340 81 q 449 83 433 81 m 643 939 q 422 906 532 936 q 221 811 297 871 q 353 988 257 913 q 553 1079 443 1058 l 643 939 z "},"":{"ha":856,"x_min":64,"x_max":822,"o":"m 822 356 q 701 108 822 217 q 449 -19 594 11 q 568 119 521 36 q 618 296 618 208 q 579 488 618 390 q 449 603 529 611 l 550 679 q 753 575 678 668 q 822 356 822 486 m 449 83 l 346 -11 q 142 79 225 -15 q 64 290 64 168 q 168 569 64 461 q 439 696 268 675 q 313 524 338 569 q 268 313 268 438 q 300 158 268 221 q 419 81 340 81 q 449 83 433 81 m 692 850 q 581 815 636 815 q 474 846 526 815 q 390 924 422 876 q 253 799 283 849 l 204 835 l 435 1078 q 692 850 563 917 z "},"":{"ha":856,"x_min":64,"x_max":822,"o":"m 822 356 q 701 108 822 217 q 449 -19 594 11 q 568 119 521 36 q 618 296 618 208 q 579 488 618 390 q 449 603 529 611 l 550 679 q 753 575 678 668 q 822 356 822 486 m 449 83 l 346 -11 q 142 79 225 -15 q 64 290 64 168 q 168 569 64 461 q 439 696 268 675 q 313 524 338 569 q 268 313 268 438 q 300 158 268 221 q 419 81 340 81 q 449 83 433 81 z "},"":{"ha":856,"x_min":64,"x_max":822,"o":"m 822 356 q 701 108 822 217 q 449 -19 594 11 q 568 119 521 36 q 618 296 618 208 q 579 488 618 390 q 449 603 529 611 l 550 679 q 753 575 678 668 q 822 356 822 486 m 449 83 l 346 -11 q 142 79 225 -15 q 64 290 64 168 q 168 569 64 461 q 439 696 268 675 q 313 524 338 569 q 268 313 268 438 q 300 158 268 221 q 419 81 340 81 q 449 83 433 81 z "},"":{"ha":815,"x_min":69,"x_max":768,"o":"m 768 646 q 671 238 671 482 q 692 40 671 139 l 599 -3 q 521 413 521 181 q 581 739 521 590 l 768 646 m 504 117 q 121 -19 385 24 q 69 315 69 119 q 156 731 69 538 l 232 671 q 224 521 224 600 q 292 203 224 306 l 471 219 l 504 117 m 224 976 q 435 904 332 953 q 617 776 551 849 q 517 972 599 882 q 336 1099 440 1058 l 224 976 z "},"":{"ha":815,"x_min":69,"x_max":768,"o":"m 768 646 q 671 238 671 482 q 692 40 671 139 l 599 -3 q 521 413 521 181 q 581 739 521 590 l 768 646 m 504 117 q 121 -19 385 24 q 69 315 69 119 q 156 731 69 538 l 232 671 q 224 521 224 600 q 292 203 224 306 l 471 219 l 504 117 m 643 939 q 422 906 532 936 q 221 811 297 871 q 353 988 257 913 q 553 1079 443 1058 l 643 939 z "},"":{"ha":815,"x_min":69,"x_max":768,"o":"m 768 646 q 671 238 671 482 q 692 40 671 139 l 599 -3 q 521 413 521 181 q 581 739 521 590 l 768 646 m 504 117 q 121 -19 385 24 q 69 315 69 119 q 156 731 69 538 l 232 671 q 224 521 224 600 q 292 203 224 306 l 471 219 l 504 117 m 667 850 q 556 815 611 815 q 449 846 501 815 q 365 924 397 876 q 228 799 258 849 l 179 835 l 410 1078 q 667 850 538 917 z "},"":{"ha":815,"x_min":69,"x_max":768,"o":"m 768 646 q 671 238 671 482 q 692 40 671 139 l 599 -3 q 521 413 521 181 q 581 739 521 590 l 768 646 m 504 117 q 121 -19 385 24 q 69 315 69 119 q 156 731 69 538 l 232 671 q 224 521 224 600 q 292 203 224 306 l 471 219 l 504 117 m 618 964 q 593 890 618 924 q 528 857 568 857 q 472 883 494 857 q 450 943 450 910 q 475 1017 450 985 q 540 1050 500 1050 q 596 1024 574 1050 q 618 964 618 999 m 367 926 q 348 873 367 896 q 300 850 329 850 q 239 881 264 850 q 214 949 214 911 q 233 1001 214 979 q 281 1024 251 1024 q 342 993 317 1024 q 367 926 367 963 z "},"":{"ha":875,"x_min":33,"x_max":851,"o":"m 442 232 l 383 172 q 178 358 281 222 q 33 599 93 468 l 229 718 q 442 232 324 419 m 851 650 q 610 69 814 411 q 238 -450 447 -200 l 58 -287 q 494 165 306 -75 q 767 710 747 485 l 851 650 m 676 939 q 456 906 565 936 q 254 811 331 871 q 386 988 290 913 q 586 1079 476 1058 l 676 939 z "},"":{"ha":767,"x_min":36,"x_max":783,"o":"m 783 342 q 631 96 783 217 q 357 -18 485 -18 q 290 -14 326 -18 l 276 88 q 344 79 311 79 q 522 182 457 79 q 579 390 579 271 q 525 503 579 453 q 408 553 471 553 q 261 504 340 553 l 264 615 q 461 685 364 685 q 685 576 586 685 q 783 342 783 467 m 271 -393 l 58 -494 q 36 -51 36 -337 q 135 1096 36 488 l 229 1063 q 190 365 190 739 q 271 -393 190 -111 z "},"":{"ha":875,"x_min":33,"x_max":851,"o":"m 442 232 l 383 172 q 178 358 281 222 q 33 599 93 468 l 229 718 q 442 232 324 419 m 851 650 q 610 69 814 411 q 238 -450 447 -200 l 58 -287 q 494 165 306 -75 q 767 710 747 485 l 851 650 m 660 964 q 635 890 660 924 q 569 857 610 857 q 514 883 536 857 q 492 943 492 910 q 517 1017 492 985 q 582 1050 542 1050 q 638 1024 615 1050 q 660 964 660 999 m 408 926 q 390 873 408 896 q 342 850 371 850 q 281 881 306 850 q 256 949 256 911 q 274 1001 256 979 q 322 1024 293 1024 q 383 993 358 1024 q 408 926 408 963 z "},"":{"ha":1142,"x_min":4,"x_max":1149,"o":"m 1014 1011 q 808 588 954 786 q 460 275 654 375 l 378 349 q 667 840 640 657 q 326 921 517 921 q 150 901 222 921 l 135 1011 q 544 1096 317 1096 q 1014 1011 804 1096 m 1149 142 q 832 -3 1011 51 q 489 -57 653 -57 q 4 94 217 -57 q 310 301 131 142 q 529 169 404 219 q 778 115 660 115 q 1082 224 946 115 l 1149 142 m 304 1401 q 415 1436 360 1436 q 524 1404 469 1436 q 606 1328 574 1374 q 743 1453 713 1403 l 792 1417 l 560 1174 q 304 1401 433 1335 z "},"":{"ha":888,"x_min":0,"x_max":843,"o":"m 758 568 q 375 185 706 447 l 281 236 q 478 510 417 321 q 136 543 365 543 l 103 638 q 388 671 233 671 q 758 568 626 671 m 843 100 q 640 -6 768 33 q 413 -39 526 -39 q 0 57 213 -39 l 213 194 q 557 101 386 101 q 775 176 693 101 l 843 100 m 179 1026 q 290 1061 235 1061 q 399 1029 344 1061 q 481 953 449 999 q 618 1078 588 1028 l 667 1042 l 435 799 q 179 1026 308 960 z "},"":{"ha":768,"x_min":63,"x_max":711,"o":"m 711 340 q 694 196 711 243 q 615 67 678 149 q 622 160 622 107 q 546 567 622 408 q 256 853 458 751 q 99 908 175 893 l 194 1094 q 585 810 453 1011 q 711 340 711 618 m 574 168 l 524 36 q 335 -24 424 -24 q 142 67 221 -24 q 63 272 63 158 q 292 644 63 492 q 238 531 250 564 q 214 408 214 469 q 425 138 214 138 q 574 168 492 138 z "}}}
